<?xml version="1.0" standalone="no"?>
<!DOCTYPE svg PUBLIC "-//W3C//DTD SVG 20010904//EN"
 "http://www.w3.org/TR/2001/REC-SVG-20010904/DTD/svg10.dtd">
<svg version="1.0" xmlns="http://www.w3.org/2000/svg"
 width="1920.000000pt" height="1920.000000pt" viewBox="0 0 1920.000000 1920.000000"
 preserveAspectRatio="xMidYMid meet">
<metadata>
Created by potrace 1.14, written by Peter Selinger 2001-2017
</metadata>
<g transform="translate(0.000000,1920.000000) scale(0.100000,-0.100000)"
fill="#000000" stroke="none">
<path d="M0 19115 c0 -47 4 -85 8 -85 5 0 46 11 93 25 46 14 93 27 104 30 11
2 74 21 140 41 66 19 145 42 175 51 30 8 57 17 59 19 2 2 -127 4 -287 4 l-292
0 0 -85z"/>
<path d="M787 19189 c-9 -6 -25 -12 -35 -14 -9 -1 -37 -9 -62 -16 -25 -7 -47
-13 -50 -14 -3 0 -32 -9 -65 -19 -33 -10 -64 -19 -70 -21 -5 -1 -17 -5 -25 -8
-8 -4 -26 -9 -40 -11 -14 -3 -117 -32 -230 -66 -112 -33 -205 -60 -207 -60 -2
0 -3 -220 -3 -489 l0 -488 167 53 c93 29 348 109 568 179 526 166 1133 359
1425 452 129 41 255 81 280 88 25 7 275 86 555 175 281 89 582 184 670 212 88
27 162 52 164 54 10 10 -3025 3 -3042 -7z"/>
<path d="M3950 19163 c-58 -19 -145 -48 -195 -63 -49 -16 -148 -47 -220 -70
-71 -23 -164 -52 -205 -65 -41 -13 -226 -71 -410 -130 -184 -59 -432 -137
-550 -175 -118 -38 -357 -113 -530 -168 -173 -56 -360 -115 -415 -132 -55 -18
-161 -52 -235 -76 -75 -24 -141 -44 -148 -44 -18 0 -15 -14 6 -26 9 -6 136
-80 282 -164 146 -85 404 -234 573 -332 170 -99 319 -184 332 -190 20 -9 81
10 387 116 199 70 435 152 523 182 88 31 196 69 240 84 44 16 179 63 300 105
121 42 315 110 430 150 116 40 309 108 430 150 121 42 315 109 430 150 116 40
354 123 530 185 369 128 510 177 615 215 41 14 113 39 160 55 47 16 157 54
245 85 88 31 246 86 350 122 105 36 192 68 194 70 2 1 -675 3 -1505 2 l-1509
-1 -105 -35z"/>
<path d="M7255 19179 c-27 -12 -57 -22 -65 -24 -17 -5 -158 -52 -180 -62 -8
-3 -19 -7 -25 -9 -5 -1 -57 -19 -115 -40 -153 -54 -507 -178 -710 -249 -85
-30 -268 -94 -890 -312 -102 -36 -196 -69 -210 -73 -14 -5 -97 -34 -185 -65
-88 -31 -195 -68 -237 -83 -43 -14 -78 -30 -78 -33 0 -4 109 -61 243 -127 133
-66 452 -224 709 -351 257 -127 470 -231 472 -231 5 0 106 39 1171 452 749
290 737 286 745 285 3 0 23 9 45 20 22 12 42 21 45 21 7 1 61 21 85 31 11 5
139 55 285 111 288 111 431 166 470 183 14 5 30 11 35 13 6 1 21 6 35 12 14 5
27 9 30 9 3 0 16 6 30 13 14 8 30 15 36 16 6 1 27 8 45 17 44 19 141 57 249
97 47 18 90 36 95 40 6 5 13 9 18 9 26 2 57 15 57 23 0 5 4 7 8 4 7 -4 96 26
157 54 19 9 181 72 480 187 77 29 149 58 160 62 11 5 27 12 35 14 8 3 -662 6
-1490 6 -1492 0 -1505 0 -1555 -20z"/>
<path d="M10578 19193 c-10 -2 -18 -9 -18 -15 0 -6 -3 -9 -6 -5 -3 3 -31 -5
-61 -19 -31 -13 -59 -24 -63 -24 -4 0 -25 -8 -46 -17 -22 -9 -41 -17 -44 -18
-12 -2 -107 -40 -130 -52 -14 -7 -31 -13 -38 -13 -7 0 -20 -5 -30 -10 -9 -6
-102 -43 -207 -83 -104 -41 -199 -77 -210 -82 -11 -5 -22 -9 -25 -9 -20 -5
-107 -41 -117 -49 -7 -5 -13 -6 -13 -2 0 4 -6 3 -12 -2 -7 -5 -33 -17 -58 -26
-25 -9 -58 -22 -75 -28 -16 -7 -39 -14 -50 -16 -11 -2 -21 -8 -23 -13 -2 -6
-10 -10 -17 -10 -7 0 -46 -14 -86 -31 -41 -16 -83 -32 -93 -34 -11 -3 -24 -9
-30 -15 -5 -5 -16 -10 -24 -10 -8 0 -28 -6 -45 -14 -90 -39 -188 -76 -202 -76
-8 0 -15 -4 -15 -8 0 -5 -6 -9 -12 -9 -11 0 -163 -59 -323 -124 -16 -7 -34
-13 -40 -14 -5 -2 -48 -18 -95 -37 -47 -19 -118 -48 -159 -63 l-74 -29 49 -23
c27 -13 55 -23 62 -23 6 0 12 -4 12 -10 0 -5 5 -10 12 -10 7 0 69 -24 138 -54
69 -30 258 -111 420 -181 285 -122 319 -137 422 -184 26 -11 50 -21 53 -21 2
0 30 -12 62 -26 32 -14 72 -32 88 -39 17 -7 56 -24 88 -39 32 -14 60 -26 63
-26 3 0 31 -12 62 -26 100 -46 97 -46 160 -18 63 28 104 46 112 49 3 1 27 11
53 23 27 12 81 36 120 53 40 17 97 43 127 57 30 14 60 26 65 28 6 1 57 23 115
49 140 63 154 69 163 67 4 -1 7 3 7 8 0 6 9 10 19 10 11 0 22 4 26 9 3 5 19
12 35 16 17 4 30 11 30 17 0 6 3 9 6 5 6 -5 33 6 249 104 28 13 52 24 55 24 9
3 54 22 100 43 85 39 255 114 265 116 6 2 28 11 50 21 22 11 42 19 45 20 3 0
16 7 30 15 14 8 30 14 35 15 6 0 36 13 69 28 32 15 62 27 67 27 5 0 9 5 9 12
0 6 3 9 6 5 4 -3 21 1 38 10 17 10 34 17 37 18 3 0 30 11 60 24 30 13 73 32
97 43 23 10 61 27 85 37 46 22 89 39 97 39 3 0 32 13 65 30 63 32 153 73 170
78 6 1 33 12 60 25 28 13 53 22 57 21 3 -1 11 5 18 13 6 7 18 11 26 8 8 -3 14
0 14 6 0 6 9 11 20 11 11 0 20 4 20 9 0 5 7 12 16 15 8 3 13 2 10 -3 -5 -8 40
13 74 34 8 5 24 11 35 12 10 2 23 9 27 16 4 6 8 8 8 3 0 -5 7 -2 17 5 9 8 17
13 17 11 1 -2 27 9 60 23 32 14 63 27 70 28 6 1 13 4 16 7 3 3 25 14 50 25 25
10 65 28 90 39 25 11 48 19 53 18 4 -1 7 3 7 9 0 5 5 7 10 4 6 -3 10 -1 10 4
0 6 3 10 8 9 16 -3 62 15 62 25 0 6 3 8 6 4 4 -3 33 7 65 23 32 17 65 30 74
30 8 0 15 5 15 10 0 6 3 9 8 8 8 -1 30 7 125 50 37 17 70 31 73 31 3 -1 8 2
12 5 6 7 -2964 6 -2990 -1z"/>
<path d="M13820 19190 c0 -5 -3 -9 -7 -8 -5 1 -21 -4 -36 -10 -16 -7 -33 -12
-38 -12 -5 0 -9 -4 -9 -9 0 -5 -7 -12 -16 -15 -10 -4 -13 -2 -8 6 4 7 -6 3
-22 -9 -16 -11 -33 -22 -39 -23 -22 -5 -228 -94 -250 -108 -5 -4 -12 -7 -15
-7 -14 -1 -146 -61 -151 -68 -4 -5 -12 -6 -18 -3 -6 4 -11 2 -11 -3 0 -6 -4
-11 -10 -11 -8 0 -54 -19 -160 -68 -19 -8 -37 -16 -40 -17 -3 0 -16 -7 -30
-15 -14 -7 -26 -13 -27 -12 -2 1 -24 -8 -50 -20 -27 -12 -51 -21 -55 -20 -3 1
-11 -5 -18 -13 -6 -7 -18 -11 -26 -8 -8 3 -14 0 -14 -6 0 -6 -3 -10 -7 -9 -5
1 -30 -9 -58 -22 -27 -13 -56 -24 -64 -26 -8 -1 -18 -9 -22 -16 -5 -7 -9 -10
-9 -6 0 7 -33 -7 -175 -72 -27 -12 -51 -22 -53 -21 -1 1 -17 -6 -35 -16 -17
-9 -34 -18 -37 -18 -12 -3 -50 -20 -120 -52 -41 -19 -79 -36 -85 -38 -5 -1
-28 -10 -50 -20 -22 -10 -43 -18 -47 -17 -5 1 -8 -2 -8 -8 0 -6 -3 -9 -7 -8
-5 1 -19 -4 -33 -9 -71 -31 -86 -36 -92 -35 -5 1 -8 -2 -8 -7 0 -5 -13 -12
-30 -16 -16 -4 -30 -11 -30 -17 0 -6 -3 -9 -6 -5 -4 3 -23 -2 -44 -13 -21 -11
-40 -16 -44 -13 -3 4 -6 2 -6 -4 0 -6 -11 -14 -25 -17 -14 -4 -23 -11 -20 -16
4 -6 11 -7 17 -4 6 4 13 2 17 -4 4 -7 17 -13 29 -15 12 -2 25 -6 28 -10 4 -4
16 -7 26 -7 10 0 18 -4 18 -8 0 -8 89 -38 103 -34 4 1 7 -2 7 -7 0 -5 14 -12
31 -16 17 -4 54 -17 83 -29 83 -37 90 -39 104 -37 6 1 12 -3 12 -9 0 -5 3 -9
8 -8 7 3 44 -10 117 -40 21 -10 42 -17 45 -17 3 0 26 -8 50 -19 52 -21 61 -25
155 -61 39 -15 75 -28 80 -30 6 -1 23 -7 38 -13 16 -7 30 -12 31 -12 2 0 20
-7 40 -15 20 -8 38 -15 41 -15 3 0 18 -6 34 -14 16 -9 31 -12 35 -9 3 4 6 1 6
-5 0 -7 3 -11 8 -10 4 0 14 -1 22 -4 8 -4 24 -9 35 -14 11 -4 23 -6 28 -6 4 1
7 -3 7 -8 0 -6 6 -10 13 -9 12 2 33 -5 107 -36 19 -8 42 -16 50 -17 8 -2 17
-6 20 -9 4 -4 157 -63 170 -64 3 0 15 -6 27 -13 12 -6 30 -14 40 -15 10 -2 36
-12 58 -21 22 -9 49 -20 60 -25 14 -6 39 1 85 23 36 17 68 35 71 39 3 5 8 8
10 7 6 -2 43 13 49 19 4 5 97 52 110 56 16 5 46 19 50 24 3 3 48 26 100 51 52
25 97 47 100 50 8 8 100 50 104 47 2 -1 12 5 22 14 11 9 30 20 44 24 13 4 30
14 38 21 7 8 22 14 32 14 10 0 21 4 24 9 6 9 151 81 163 80 3 -1 9 3 12 8 3 4
33 21 66 37 33 15 67 32 75 36 8 5 44 23 80 40 36 17 72 35 80 40 15 10 81 42
90 45 3 0 29 13 57 28 29 15 56 27 59 26 4 0 10 3 13 8 3 5 60 35 126 67 66
32 127 62 135 67 19 11 79 38 86 38 2 0 12 7 20 16 9 8 19 13 24 10 5 -3 10
-2 12 3 3 8 214 113 224 111 4 0 10 3 13 8 7 10 332 172 345 172 5 -1 12 3 15
8 7 11 97 55 107 53 3 -1 12 7 20 17 7 10 14 14 14 10 0 -4 20 4 45 17 25 14
45 22 45 18 0 -4 5 0 10 8 5 8 13 15 17 16 15 1 68 28 87 43 17 14 18 14 12 1
-4 -8 0 -6 8 4 9 11 16 17 16 14 0 -4 51 20 114 52 63 32 117 57 120 54 3 -2
4 -1 1 3 -4 6 66 42 90 46 6 1 12 5 15 8 3 3 23 16 45 27 l40 21 -1487 1
c-986 0 -1488 -3 -1488 -10z"/>
<path d="M17045 19189 c-8 -11 -55 -33 -67 -31 -5 1 -8 -2 -8 -7 0 -8 -37 -24
-52 -22 -5 1 -8 -3 -8 -8 0 -9 -40 -27 -49 -22 -2 2 -7 -1 -10 -6 -3 -5 -69
-40 -146 -78 -77 -38 -170 -86 -207 -106 -37 -20 -69 -34 -72 -31 -3 3 -6 0
-6 -6 0 -7 -3 -11 -7 -10 -5 1 -37 -13 -73 -32 -36 -19 -68 -33 -72 -32 -5 1
-8 -3 -8 -9 0 -5 -4 -8 -9 -5 -5 4 -11 3 -13 -1 -4 -10 -80 -47 -90 -45 -5 1
-8 -3 -8 -9 0 -5 -4 -7 -10 -4 -5 3 -10 1 -10 -5 0 -6 -4 -8 -10 -5 -5 3 -10
1 -10 -5 0 -6 -4 -8 -10 -5 -5 3 -10 2 -10 -2 0 -8 -63 -37 -66 -31 -1 2 -12
-6 -24 -17 -12 -11 -24 -19 -26 -17 -4 2 -76 -33 -138 -67 -19 -11 -37 -17
-40 -14 -3 4 -6 1 -6 -6 0 -7 -4 -9 -10 -6 -5 3 -10 2 -10 -2 0 -7 -51 -34
-72 -37 -4 0 -13 -7 -19 -13 -7 -7 -18 -13 -25 -13 -6 0 -28 -11 -48 -25 -21
-14 -34 -20 -31 -14 4 6 -2 5 -14 -3 -12 -7 -21 -16 -21 -20 0 -5 -9 -8 -20
-8 -11 0 -20 -4 -20 -9 0 -5 -7 -12 -16 -15 -9 -3 -12 -2 -8 5 3 6 -3 5 -15
-3 -12 -7 -21 -16 -21 -20 0 -5 -9 -8 -20 -8 -11 0 -20 -5 -20 -12 0 -6 -2 -9
-5 -6 -3 3 -35 -10 -72 -28 -36 -19 -72 -34 -80 -34 -8 0 -11 -4 -8 -10 6 -9
-8 -14 -27 -11 -5 0 -8 -4 -8 -10 0 -5 -4 -8 -9 -4 -5 3 -12 2 -15 -3 -2 -4
41 -23 97 -42 56 -19 108 -38 115 -43 6 -5 12 -6 12 -2 0 4 7 1 17 -6 9 -8 18
-13 19 -12 9 6 64 -10 64 -18 0 -5 3 -8 8 -7 10 4 155 -43 170 -55 6 -5 12 -7
12 -3 0 4 13 0 30 -9 16 -8 33 -16 37 -16 9 -2 13 -3 83 -25 30 -9 61 -21 68
-27 6 -5 12 -7 12 -3 0 6 68 -17 100 -33 8 -4 39 -14 68 -21 28 -8 52 -18 52
-22 0 -5 4 -7 9 -3 5 3 12 1 16 -5 4 -6 11 -8 16 -4 5 3 16 0 24 -6 8 -7 15
-9 15 -5 0 4 6 2 13 -4 8 -6 17 -8 20 -4 4 3 7 1 7 -6 0 -7 4 -10 8 -7 5 3 20
-1 35 -9 15 -8 27 -12 27 -9 0 2 13 -2 30 -11 16 -8 32 -15 35 -15 5 0 9 -1
23 -5 7 -2 18 -6 77 -28 17 -7 32 -12 35 -13 3 -1 20 -5 38 -9 17 -4 32 -11
32 -15 0 -4 12 -7 26 -7 15 0 29 -4 33 -9 6 -8 13 -11 51 -19 8 -2 17 -4 20
-5 3 -1 8 -2 13 -1 4 0 7 -4 7 -10 0 -5 4 -8 10 -4 5 3 17 1 27 -4 16 -8 49
-22 63 -26 3 0 30 -9 60 -20 30 -11 58 -18 63 -17 4 1 7 -2 7 -8 0 -5 6 -7 14
-4 8 3 17 0 21 -5 3 -6 11 -9 16 -6 5 4 9 1 9 -5 0 -7 7 -10 15 -7 8 4 17 2
20 -4 4 -5 11 -7 16 -4 5 4 9 1 9 -4 0 -6 3 -10 8 -10 16 3 72 -14 72 -22 0
-11 31 1 48 18 7 7 20 13 28 13 8 0 14 4 14 8 0 5 16 14 35 22 19 8 35 17 35
22 0 4 9 8 20 8 11 0 23 6 26 13 3 8 20 20 39 27 19 8 35 17 35 22 0 4 7 8 15
8 8 0 15 5 15 11 0 5 4 8 9 5 5 -3 14 1 21 9 7 8 16 12 21 9 5 -3 9 -1 9 4 0
5 12 15 28 22 15 8 39 22 53 32 14 10 29 15 33 11 3 -3 6 -1 6 6 0 7 14 17 30
22 17 6 30 15 30 21 0 5 5 6 10 3 6 -3 10 -2 10 4 0 6 11 13 25 17 14 3 25 10
25 14 0 7 22 16 44 18 5 0 12 4 15 9 11 16 71 55 71 46 0 -4 4 -3 8 3 4 6 21
19 37 28 17 9 48 28 70 41 22 13 47 27 55 31 8 4 50 29 92 55 42 26 79 45 82
41 3 -3 6 0 6 6 0 7 5 12 10 12 6 0 29 12 53 27 23 15 51 32 62 38 11 6 36 21
55 33 19 11 39 21 44 21 5 -1 12 3 15 8 9 13 105 68 114 65 4 -1 7 3 7 9 0 5
4 8 9 5 5 -3 12 1 15 10 3 8 10 12 16 9 5 -3 10 -2 10 3 0 4 20 19 45 31 24
12 47 26 50 32 4 5 11 7 16 4 5 -4 9 -1 9 6 0 7 3 10 6 6 3 -3 13 1 22 9 10 8
20 13 23 12 3 -2 13 5 23 15 10 9 22 14 28 11 6 -4 8 -3 5 3 -6 9 45 40 67 41
5 0 12 4 15 9 12 18 78 53 86 45 5 -4 5 -1 1 6 -4 6 -2 12 4 12 7 0 24 9 40
20 15 11 30 17 34 13 3 -3 6 -2 6 4 0 6 9 13 20 16 19 5 20 14 20 251 l0 246
-1074 0 c-748 0 -1077 -3 -1081 -11z"/>
<path d="M19176 18534 c-4 -9 -9 -14 -12 -11 -4 3 -21 -5 -39 -18 -17 -14 -35
-22 -38 -19 -4 4 -9 -1 -13 -10 -3 -9 -12 -16 -19 -16 -7 0 -24 -9 -39 -21
-14 -11 -26 -18 -26 -14 0 3 -10 -3 -22 -14 -11 -11 -25 -18 -30 -15 -4 3 -8
0 -8 -5 0 -6 -5 -11 -11 -11 -6 0 -43 -21 -82 -46 -39 -26 -77 -47 -85 -48 -7
-2 -17 -7 -20 -12 -8 -12 -43 -28 -54 -26 -5 1 -8 0 -8 -3 0 -6 44 -25 70 -30
8 -2 16 -4 18 -5 3 -3 13 -6 50 -15 18 -4 35 -12 38 -16 3 -5 10 -7 15 -3 5 3
17 0 26 -8 9 -7 17 -12 17 -10 1 5 58 -9 71 -17 6 -3 12 -6 15 -7 55 -10 80
-18 80 -26 0 -5 6 -8 13 -5 6 2 28 -2 47 -10 76 -31 70 -49 70 212 0 212 -7
274 -24 229z"/>
<path d="M835 18174 c-14 -4 -406 -128 -642 -204 l-193 -62 0 -711 1 -712 397
-275 c218 -151 448 -311 512 -356 63 -44 151 -105 195 -135 70 -49 229 -160
760 -529 120 -84 800 -556 995 -692 36 -24 281 -195 545 -378 264 -184 486
-333 495 -333 8 1 80 33 160 71 80 38 181 86 225 107 127 60 245 115 310 145
33 15 146 68 250 118 105 49 235 111 290 136 55 26 123 58 150 71 28 13 112
53 188 89 76 36 139 66 141 66 2 0 68 31 147 69 191 91 300 142 444 208 66 31
126 61 133 67 12 12 2 19 -99 71 -10 5 -19 13 -19 17 0 5 -4 8 -9 8 -5 0 -45
21 -88 47 -170 100 -1154 679 -1188 697 -51 29 -223 131 -247 147 -15 11 -29
19 -32 19 -3 0 -49 26 -103 59 -54 32 -219 129 -368 216 -148 87 -317 186
-375 220 -58 34 -170 100 -250 147 -80 47 -325 191 -545 320 -220 129 -454
267 -520 305 -66 38 -237 139 -380 223 -143 84 -361 213 -485 285 -124 73
-315 185 -425 250 -110 65 -220 129 -245 143 -25 14 -61 35 -80 47 -19 12 -39
21 -45 19z"/>
<path d="M11481 18164 c-11 -8 -21 -12 -21 -9 0 3 -12 -1 -27 -9 -30 -15 -68
-32 -203 -90 -47 -20 -98 -43 -115 -50 -16 -8 -50 -23 -75 -34 -25 -11 -72
-32 -105 -47 -58 -26 -105 -47 -115 -50 -14 -5 -63 -26 -133 -59 -43 -20 -80
-36 -82 -36 -2 0 -34 -14 -72 -32 -37 -17 -70 -31 -73 -31 -3 1 -14 -4 -25
-10 -11 -6 -22 -12 -25 -13 -8 -2 -79 -33 -145 -63 -33 -16 -77 -34 -97 -42
-21 -7 -38 -16 -38 -19 0 -4 -6 -7 -12 -7 -11 0 -68 -25 -182 -77 l-29 -14 31
-16 c18 -9 34 -17 37 -17 4 0 55 -21 133 -55 17 -8 49 -21 70 -30 20 -8 51
-22 67 -29 42 -20 144 -64 150 -65 9 -2 121 -51 137 -60 10 -6 25 -10 33 -10
8 0 15 -4 15 -10 0 -5 6 -10 14 -10 8 0 53 -18 100 -40 47 -21 86 -36 86 -33
0 3 6 1 13 -5 6 -5 41 -22 77 -37 61 -25 107 -45 190 -82 19 -8 51 -22 70 -30
19 -8 47 -21 63 -29 15 -9 27 -13 27 -10 0 2 27 -9 60 -25 33 -16 62 -29 65
-29 2 0 34 -13 69 -30 36 -16 77 -32 91 -36 14 -3 25 -10 25 -15 0 -5 3 -8 8
-7 8 1 24 -5 151 -60 47 -20 89 -36 94 -34 4 1 7 -2 7 -7 0 -5 7 -12 16 -15
10 -4 13 -2 8 7 -4 6 1 5 12 -3 27 -22 101 -55 117 -52 4 1 7 -3 7 -9 0 -6 7
-9 15 -5 8 3 15 1 15 -4 0 -6 5 -10 10 -10 6 0 32 -10 58 -21 26 -12 67 -30
92 -41 25 -11 54 -24 65 -29 31 -13 69 -27 79 -27 5 0 12 -4 15 -9 6 -8 105
-52 126 -56 6 -1 12 -5 15 -8 5 -5 119 -53 130 -54 3 -1 19 -9 37 -18 18 -9
39 -17 48 -17 8 0 15 -4 15 -10 0 -5 4 -10 9 -10 5 0 22 -5 38 -12 15 -6 30
-12 33 -13 3 0 20 -9 38 -18 17 -10 32 -15 32 -11 0 4 7 1 15 -6 8 -7 15 -9
15 -4 0 5 4 4 8 -1 5 -9 221 -107 242 -111 7 -1 75 -31 130 -57 25 -12 50 -22
55 -23 6 0 35 -12 65 -27 30 -14 105 -47 165 -73 61 -25 126 -53 145 -62 19
-9 38 -15 43 -14 4 1 7 -2 7 -8 0 -6 3 -9 8 -9 4 1 10 0 15 -1 4 -1 10 -3 15
-5 4 -1 27 -11 52 -22 65 -29 84 -36 93 -35 4 1 7 -3 7 -8 0 -5 3 -9 8 -8 4 1
23 -6 42 -14 100 -46 136 -61 148 -61 6 0 12 -4 12 -9 0 -5 5 -6 10 -3 6 3 10
2 10 -3 0 -6 12 -13 28 -18 35 -10 31 -8 77 -29 22 -10 43 -18 48 -17 4 1 7
-3 7 -9 0 -6 7 -9 15 -5 8 3 15 1 15 -5 0 -6 5 -7 10 -4 6 3 10 1 10 -4 0 -6
7 -11 15 -11 8 0 23 -4 33 -10 20 -12 203 -91 217 -95 6 -1 30 -12 55 -23 25
-12 51 -22 58 -22 6 0 12 -5 12 -11 0 -6 7 -9 15 -5 8 3 15 1 15 -4 0 -6 3 -9
8 -8 4 1 21 -5 38 -15 17 -9 34 -13 38 -10 3 4 6 1 6 -6 0 -7 5 -9 10 -6 6 3
10 1 10 -4 0 -6 3 -10 8 -9 4 1 17 -3 30 -10 12 -7 22 -10 22 -6 0 3 7 1 15
-6 8 -7 15 -9 15 -6 0 4 7 0 16 -8 8 -9 20 -14 25 -11 5 4 9 1 9 -5 0 -6 5 -8
10 -5 6 3 10 1 10 -4 0 -6 7 -11 15 -11 9 0 34 -9 55 -20 22 -11 40 -18 40
-14 0 3 15 -4 33 -15 19 -11 37 -18 40 -14 4 3 7 1 7 -5 0 -7 8 -12 18 -12 10
0 21 -3 25 -6 9 -10 160 -74 174 -74 6 0 13 -5 15 -10 2 -6 13 -12 26 -13 12
0 22 -4 22 -8 0 -6 11 -11 55 -24 6 -2 28 -11 50 -21 22 -10 42 -18 45 -19 3
-1 28 -12 55 -24 60 -27 98 -44 105 -46 3 0 15 -6 26 -13 12 -6 24 -8 28 -5 3
3 6 1 6 -6 0 -7 5 -9 10 -6 6 3 10 1 10 -5 0 -6 4 -9 9 -5 5 3 12 1 16 -5 4
-6 10 -8 15 -5 4 3 13 -2 20 -10 7 -8 16 -12 21 -9 5 3 9 1 9 -5 0 -6 7 -8 15
-5 8 4 15 1 15 -6 0 -6 4 -9 9 -6 5 4 11 2 13 -4 1 -5 12 -11 23 -13 11 -2 34
-11 51 -20 17 -9 34 -13 38 -10 3 4 6 1 6 -5 0 -7 4 -12 9 -12 5 0 22 -5 38
-12 15 -6 31 -11 36 -10 4 1 7 -3 7 -10 0 -6 3 -8 6 -5 4 3 16 1 28 -5 11 -7
23 -13 26 -13 3 -1 28 -12 55 -25 28 -13 53 -24 58 -25 4 -2 10 -4 15 -5 4 -1
10 -2 15 -1 4 0 7 -4 7 -11 0 -6 2 -9 6 -6 3 3 32 -7 65 -23 32 -16 62 -29 64
-29 5 0 29 -10 140 -60 63 -28 209 -90 225 -95 3 -1 27 -11 53 -23 27 -12 53
-22 58 -22 5 0 9 -5 9 -12 0 -6 3 -9 6 -5 4 3 27 -4 53 -17 25 -13 58 -26 74
-30 15 -3 27 -11 27 -16 0 -5 6 -7 13 -4 8 3 20 -2 27 -10 7 -9 16 -14 20 -11
5 3 11 1 15 -5 3 -5 15 -10 26 -10 10 0 19 -5 19 -12 0 -6 3 -9 6 -5 4 3 28
-5 54 -18 26 -13 50 -21 54 -18 3 4 6 1 6 -6 0 -7 5 -9 10 -6 6 3 10 1 10 -6
0 -7 3 -9 6 -6 4 3 16 1 28 -5 11 -7 24 -11 29 -10 4 1 7 -2 7 -8 0 -6 3 -9 8
-8 4 1 20 -4 35 -10 16 -7 33 -12 38 -12 5 0 9 -5 9 -12 0 -6 3 -9 6 -5 4 3
23 -2 44 -13 21 -11 40 -16 44 -13 3 4 6 1 6 -5 0 -6 14 -13 30 -17 17 -4 30
-11 30 -17 0 -6 7 -8 15 -4 8 3 21 -2 30 -10 8 -9 15 -12 15 -8 0 5 5 3 12 -4
7 -7 20 -12 30 -12 10 0 18 -5 18 -10 0 -6 3 -9 8 -8 9 2 40 -10 72 -27 14 -7
27 -14 30 -14 37 -9 50 -15 50 -22 0 -5 8 -9 19 -9 10 0 39 -11 65 -25 25 -13
46 -22 46 -20 0 3 27 -8 60 -25 33 -17 65 -29 72 -28 7 2 25 16 40 32 16 15
28 26 28 23 0 -3 14 8 31 24 17 16 38 29 46 29 8 0 11 5 8 10 -3 6 -2 10 4 10
5 0 21 10 35 23 13 12 34 29 46 37 12 8 32 24 44 35 12 11 37 31 55 45 18 13
43 33 56 45 12 11 35 29 50 40 16 11 37 29 48 40 11 11 16 13 12 5 -5 -8 5 -1
22 15 17 17 45 41 63 55 18 14 38 31 45 38 8 6 17 12 22 12 5 0 16 8 24 18 24
26 69 63 69 55 0 -3 11 7 25 23 14 16 25 26 25 22 0 -4 11 3 25 16 l25 23 0
346 0 345 -27 7 c-16 5 -34 9 -42 11 -8 1 -17 6 -20 11 -3 4 -13 9 -21 11 -8
1 -31 9 -50 16 -61 25 -75 29 -82 28 -5 -1 -8 3 -8 10 0 6 -3 8 -7 5 -3 -4
-17 0 -30 8 -13 9 -23 13 -23 10 0 -2 -25 6 -55 20 -30 13 -55 22 -55 19 0 -2
-10 2 -22 10 -13 8 -27 16 -33 17 -17 3 -39 10 -65 22 -14 6 -28 11 -32 13 -5
1 -11 3 -15 4 -5 1 -11 2 -15 1 -5 0 -8 4 -8 11 0 6 -3 8 -6 5 -4 -3 -16 -1
-28 5 -24 14 -21 13 -63 23 -18 4 -33 12 -33 17 0 5 -4 6 -10 3 -5 -3 -10 -1
-10 5 0 6 -4 9 -8 6 -5 -3 -20 1 -35 9 -15 8 -27 11 -27 7 0 -3 -5 -1 -12 6
-7 7 -20 12 -30 12 -10 0 -18 5 -18 11 0 5 -4 8 -8 5 -4 -2 -21 1 -37 8 -17 7
-43 19 -60 26 -16 8 -36 12 -44 11 -7 -1 -10 2 -6 8 3 7 0 8 -9 5 -9 -3 -16
-1 -16 6 0 6 -4 8 -10 5 -5 -3 -21 2 -35 11 -14 9 -25 13 -25 10 0 -4 -15 1
-32 11 -18 9 -39 16 -45 15 -7 -2 -13 2 -13 8 0 5 -3 9 -7 9 -5 -1 -11 0 -15
1 -5 1 -11 3 -15 5 -5 1 -21 7 -38 14 -16 7 -47 18 -67 24 -21 7 -38 16 -38
20 0 5 -4 6 -9 2 -5 -3 -12 -1 -16 5 -4 6 -10 8 -15 5 -5 -3 -11 -1 -15 5 -3
5 -15 10 -26 10 -10 0 -19 5 -19 11 0 5 -4 8 -8 5 -5 -3 -20 1 -35 9 -14 7
-28 11 -31 7 -3 -3 -6 1 -6 8 0 7 -3 11 -6 7 -4 -3 -19 0 -35 9 -16 8 -32 15
-36 15 -5 1 -23 7 -42 15 -18 8 -38 14 -43 14 -5 0 -31 11 -58 25 -28 14 -50
23 -50 20 0 -3 -17 3 -39 14 -21 11 -41 17 -45 14 -3 -4 -6 0 -6 7 0 7 -3 10
-7 7 -3 -4 -12 -2 -20 4 -7 6 -13 9 -13 5 0 -4 -19 3 -42 15 -24 12 -43 21
-43 19 0 -1 -17 5 -39 14 -21 9 -44 16 -50 16 -7 0 -16 4 -21 9 -12 10 -87 36
-97 33 -5 -1 -8 3 -8 8 0 5 -3 9 -7 9 -5 -1 -11 0 -15 1 -5 1 -11 3 -15 5 -5
1 -21 7 -36 13 -16 7 -33 12 -38 12 -5 0 -9 5 -9 11 0 6 -7 9 -15 5 -8 -3 -15
-1 -15 5 0 6 -4 7 -10 4 -5 -3 -21 2 -35 11 -14 9 -25 13 -25 9 0 -4 -6 -3
-13 3 -7 6 -46 23 -87 38 -41 14 -81 31 -87 36 -7 6 -13 7 -13 4 0 -4 -10 -1
-22 6 -13 7 -26 11 -30 10 -5 -1 -8 3 -8 9 0 5 -5 7 -10 4 -6 -4 -17 -1 -25 5
-8 7 -15 9 -15 4 0 -5 -4 -3 -8 3 -4 7 -17 14 -27 16 -11 2 -31 9 -45 17 -14
7 -25 12 -25 11 0 -3 -41 12 -115 42 -30 12 -58 22 -62 23 -5 1 -10 3 -13 4
-3 1 -8 3 -12 4 -5 1 -18 7 -30 14 -13 7 -23 9 -23 5 0 -4 -4 -2 -8 4 -4 7
-17 14 -27 16 -11 2 -33 9 -48 15 -16 7 -30 12 -31 12 -2 0 -21 8 -42 17 -22
9 -42 18 -46 19 -5 1 -10 3 -13 4 -3 1 -8 3 -12 5 -8 2 -55 20 -83 32 -8 3
-18 7 -22 8 -5 2 -11 4 -15 5 -5 1 -11 2 -15 1 -5 0 -8 4 -8 9 0 5 -3 9 -7 8
-5 -1 -19 4 -33 12 -14 7 -26 13 -27 12 -5 -3 -99 32 -218 79 -16 7 -32 13
-35 14 -3 1 -13 5 -22 8 -10 4 -26 10 -35 14 -10 3 -20 7 -23 8 -3 1 -18 7
-35 14 -16 6 -41 16 -55 21 -14 5 -38 15 -55 21 -16 7 -32 13 -35 14 -3 1 -14
5 -25 10 -45 18 -121 47 -130 50 -10 2 -34 11 -100 40 -22 9 -44 18 -50 19 -5
2 -19 7 -30 11 -11 4 -72 28 -135 52 -63 25 -153 60 -200 78 -47 18 -114 45
-150 58 -36 14 -78 31 -95 38 -16 7 -34 13 -40 14 -5 0 -21 7 -35 15 -14 7
-26 13 -27 12 -2 -1 -18 5 -37 13 -20 8 -42 15 -51 15 -8 0 -15 5 -15 12 0 6
-3 8 -7 5 -3 -4 -17 0 -30 8 -13 9 -23 13 -23 10 0 -2 -25 6 -55 20 -31 13
-56 24 -58 24 -3 0 -38 12 -99 37 -31 12 -59 19 -62 16 -3 -3 -6 0 -6 7 0 7
-4 9 -10 6 -5 -3 -10 -1 -10 6 0 7 -3 10 -6 6 -4 -3 -24 3 -45 14 -22 11 -39
17 -39 15 0 -2 -36 11 -80 30 -44 18 -80 31 -80 28 0 -2 -10 1 -22 8 -13 7
-25 13 -28 13 -3 1 -18 7 -35 14 -16 7 -95 37 -175 68 -80 30 -149 58 -155 61
-5 4 -14 7 -20 8 -5 1 -52 18 -104 39 -51 20 -99 38 -105 39 -6 1 -21 7 -32
14 -12 6 -24 8 -28 5 -3 -3 -6 -1 -6 5 0 7 -8 12 -18 12 -10 0 -22 3 -26 8 -4
4 -11 7 -14 8 -4 0 -15 4 -24 7 -10 4 -26 10 -35 14 -10 3 -21 5 -25 5 -5 -1
-8 3 -8 9 0 5 -4 8 -9 4 -5 -3 -12 -1 -16 5 -3 5 -14 10 -23 10 -9 0 -29 6
-44 14 -33 18 -101 41 -110 38 -5 -1 -8 3 -8 8 0 6 -9 10 -19 10 -11 0 -23 5
-26 11 -4 6 -13 8 -21 5 -8 -3 -14 -2 -14 2 0 4 -26 16 -57 27 -32 10 -62 22
-68 26 -5 3 -28 12 -50 19 -22 7 -44 16 -49 21 -6 5 -20 9 -32 9 -12 0 -24 4
-26 10 -1 5 -12 11 -23 13 -11 2 -37 11 -57 20 -20 8 -65 26 -100 38 -35 12
-68 26 -74 31 -7 5 -20 11 -30 13 -11 2 -42 13 -70 24 -46 18 -53 18 -73 5z"/>
<path d="M15026 18173 c-4 -5 -11 -8 -14 -9 -4 0 -49 -21 -99 -47 -51 -26 -95
-46 -97 -45 -2 2 -12 -5 -22 -14 -11 -9 -22 -17 -27 -17 -13 -1 -71 -33 -91
-50 -16 -13 -18 -13 -11 -1 7 13 6 13 -11 0 -10 -9 -37 -25 -59 -35 -22 -11
-42 -23 -43 -28 -2 -4 -8 -5 -13 -1 -5 3 -9 0 -9 -5 0 -6 -3 -11 -7 -10 -17 2
-53 -14 -53 -24 0 -6 -2 -8 -6 -5 -3 3 -48 -16 -100 -43 -51 -26 -94 -45 -94
-41 0 4 -5 -1 -11 -11 -6 -9 -14 -15 -20 -12 -5 4 -9 1 -9 -4 0 -6 -3 -10 -7
-9 -11 2 -66 -24 -74 -35 -3 -5 -8 -8 -10 -8 -9 2 -69 -24 -69 -30 0 -4 -12
-10 -27 -14 -15 -3 -30 -10 -33 -13 -6 -8 -196 -101 -208 -103 -4 0 -14 -7
-23 -15 -9 -8 -27 -17 -39 -19 -13 -3 -26 -8 -29 -12 -3 -5 -22 -16 -41 -25
-21 -10 -28 -17 -17 -17 9 -1 17 -6 17 -13 0 -6 3 -8 7 -5 3 4 12 2 20 -4 7
-6 13 -8 13 -4 0 4 6 3 13 -2 14 -12 89 -38 100 -35 4 1 7 -3 7 -8 0 -5 8 -10
18 -10 10 0 28 -7 40 -16 12 -8 22 -13 22 -10 0 3 20 -3 45 -14 25 -11 45 -17
45 -13 0 3 8 -2 19 -11 10 -9 22 -16 27 -15 5 1 16 -1 24 -4 19 -8 73 -30 80
-32 13 -5 50 -19 94 -37 27 -11 56 -21 66 -23 10 -2 26 -8 36 -13 11 -6 37
-17 59 -25 22 -8 56 -21 75 -28 19 -8 38 -13 43 -11 4 1 7 -3 7 -8 0 -5 3 -9
8 -8 10 2 66 -14 72 -21 6 -7 66 -30 92 -36 9 -2 30 -11 47 -19 17 -9 31 -14
31 -11 0 3 14 -2 31 -11 17 -8 38 -17 47 -19 10 -2 43 -15 75 -29 31 -14 58
-26 60 -25 1 0 16 -5 32 -11 17 -7 35 -13 40 -14 6 -1 17 -6 25 -11 8 -5 21
-11 28 -12 6 -2 18 -4 25 -6 6 -1 17 -6 23 -10 6 -3 47 -20 90 -36 44 -16 93
-35 109 -42 17 -7 35 -13 40 -14 6 0 20 -6 33 -13 12 -7 22 -9 22 -5 0 4 4 2
8 -4 4 -7 17 -14 27 -16 11 -2 29 -8 40 -12 111 -44 135 -53 135 -48 0 3 9 -2
20 -12 11 -10 20 -15 20 -11 0 3 14 0 30 -9 17 -9 30 -14 30 -11 0 2 37 -12
83 -31 45 -19 82 -34 82 -33 0 1 11 -3 25 -8 67 -27 96 -37 103 -34 4 1 7 -3
7 -9 0 -5 5 -7 10 -4 6 3 10 2 10 -3 0 -5 6 -9 13 -10 19 -1 39 -8 72 -22 17
-7 32 -14 35 -15 3 -1 14 -5 25 -10 125 -49 152 -58 163 -58 6 0 12 -4 12 -9
0 -4 3 -7 8 -7 4 1 10 0 15 -1 4 -1 10 -3 15 -5 4 -1 16 -5 27 -10 126 -51
185 -72 189 -67 3 3 6 -1 6 -8 0 -7 3 -11 6 -8 3 4 17 0 31 -7 15 -8 30 -12
35 -9 4 3 8 0 8 -7 0 -7 3 -10 6 -6 4 3 25 -3 48 -15 22 -11 43 -21 46 -21 5
1 41 -12 70 -24 8 -3 20 -7 25 -9 6 -1 24 -8 40 -15 17 -7 33 -13 38 -14 4 -2
9 -4 12 -5 3 -1 8 -3 13 -5 4 -1 21 -7 37 -14 17 -7 35 -14 40 -15 10 -3 25
-9 85 -33 19 -8 44 -16 54 -19 11 -2 23 -9 27 -15 4 -6 11 -9 17 -5 6 3 13 2
17 -4 3 -5 15 -10 26 -10 10 0 19 -5 19 -12 0 -6 3 -9 6 -5 4 3 19 0 34 -8 15
-8 30 -11 34 -8 3 4 6 1 6 -5 0 -7 3 -11 8 -11 17 3 72 -14 72 -23 0 -5 4 -7
9 -3 5 3 12 1 16 -5 4 -6 10 -8 15 -5 5 3 11 1 15 -5 3 -5 15 -10 26 -10 10 0
19 -5 19 -11 0 -6 6 -9 13 -6 6 2 37 -7 67 -21 30 -13 64 -26 74 -28 11 -2 23
-8 26 -14 4 -6 11 -10 16 -8 5 1 19 -3 32 -10 12 -7 22 -10 22 -6 0 3 7 1 15
-6 8 -7 15 -9 15 -5 0 4 6 2 13 -4 8 -6 17 -8 20 -4 4 3 7 2 7 -4 0 -5 23 -16
50 -23 28 -7 50 -17 50 -22 0 -4 3 -7 8 -7 4 1 10 0 15 -1 4 -1 12 -4 17 -5 6
-1 11 -3 13 -5 1 -1 11 -3 21 -5 10 -2 23 -10 27 -17 5 -7 9 -9 9 -4 0 5 7 3
15 -4 8 -7 15 -10 15 -6 0 3 25 -5 55 -19 30 -13 55 -22 55 -19 0 2 12 -4 27
-13 15 -10 27 -17 28 -15 0 4 23 -4 70 -21 17 -7 33 -11 38 -9 4 1 7 -3 7 -9
0 -5 5 -7 10 -4 6 3 10 2 10 -4 0 -6 6 -8 14 -5 8 3 17 1 21 -5 3 -6 15 -11
26 -11 10 0 19 -5 19 -11 0 -5 4 -8 8 -5 5 3 21 -2 36 -10 16 -7 35 -14 42
-14 8 0 14 -4 14 -10 0 -5 7 -7 15 -4 8 4 15 1 15 -7 0 -7 3 -10 6 -6 4 3 19
0 35 -9 16 -8 29 -12 29 -9 0 3 11 -2 25 -11 14 -9 25 -13 25 -9 0 4 7 2 15
-5 8 -7 15 -10 15 -6 0 4 11 -1 25 -10 14 -9 25 -13 25 -9 0 4 7 2 15 -5 8 -7
15 -10 15 -6 0 4 11 -1 25 -10 14 -9 25 -14 25 -11 0 4 29 -7 64 -23 35 -15
67 -26 70 -23 3 4 6 0 6 -7 0 -7 3 -11 6 -8 3 4 21 0 40 -8 l34 -14 0 690 c0
605 -2 691 -15 695 -8 3 -23 8 -32 12 -10 3 -21 7 -25 8 -5 2 -10 4 -13 5 -3
1 -9 4 -15 5 -5 1 -11 3 -12 4 -2 2 -14 5 -28 7 -13 2 -35 11 -47 19 -13 9
-23 13 -23 10 0 -3 -13 1 -30 10 -16 9 -30 13 -30 9 0 -4 -7 -1 -15 6 -8 7
-15 9 -15 5 0 -4 -7 -2 -15 5 -8 7 -15 9 -15 5 0 -4 -6 -2 -13 4 -8 6 -17 8
-20 4 -4 -3 -7 -1 -7 6 0 7 -4 9 -10 6 -5 -3 -20 0 -32 7 -13 7 -26 13 -30 14
-5 1 -9 2 -10 3 -2 2 -14 5 -28 7 -13 2 -27 8 -30 12 -3 4 -16 9 -30 10 -14 2
-31 9 -37 14 -7 6 -13 7 -13 3 0 -4 -7 -2 -15 5 -8 7 -15 10 -15 6 0 -4 -14 1
-31 10 -17 9 -43 18 -58 20 -14 3 -28 9 -29 15 -2 5 -8 6 -13 3 -6 -3 -16 0
-24 6 -8 7 -15 9 -15 5 0 -4 -7 -2 -15 5 -8 7 -15 9 -15 5 0 -4 -11 0 -25 9
-14 9 -25 14 -25 10 0 -4 -7 -1 -15 6 -8 7 -15 10 -15 7 0 -3 -24 4 -52 14
-29 11 -61 22 -71 24 -9 2 -23 7 -30 12 -6 4 -14 8 -17 9 -25 4 -67 18 -75 24
-5 4 -34 13 -62 21 -29 7 -53 17 -53 23 0 5 -3 7 -6 3 -4 -3 -23 0 -43 8 -53
19 -71 25 -75 22 -1 -1 -10 4 -19 12 -10 7 -17 11 -17 7 0 -4 -13 0 -29 8 -16
9 -31 12 -35 9 -3 -4 -6 -1 -6 5 0 7 -3 11 -7 11 -5 -1 -11 0 -15 1 -5 1 -12
4 -18 5 -5 1 -12 4 -15 5 -3 1 -9 4 -15 5 -5 1 -12 4 -15 5 -3 1 -9 4 -15 5
-5 1 -12 4 -15 5 -3 1 -8 3 -12 5 -9 2 -24 7 -73 24 -19 7 -39 14 -45 15 -5 2
-22 8 -36 13 -14 6 -45 17 -70 24 -24 7 -46 15 -49 19 -5 5 -15 8 -54 16 -10
2 -24 8 -30 14 -7 5 -16 7 -19 3 -4 -3 -7 -1 -7 6 0 7 -5 9 -10 6 -6 -4 -17
-1 -25 5 -8 7 -15 9 -15 5 0 -4 -6 -3 -12 2 -7 6 -37 16 -65 24 -29 7 -53 15
-53 19 0 3 -10 6 -22 7 -11 1 -24 6 -27 10 -6 8 -14 11 -54 18 -9 2 -23 7 -30
12 -6 4 -14 8 -17 9 -27 5 -71 18 -95 29 -25 11 -64 25 -85 30 -3 1 -14 5 -25
9 -59 23 -75 28 -79 28 -3 0 -29 8 -58 19 -29 11 -60 22 -68 24 -8 2 -16 4
-17 5 -2 2 -7 4 -13 5 -5 1 -13 4 -17 5 -5 1 -11 2 -15 1 -5 0 -8 4 -8 10 0 6
-7 9 -15 5 -8 -3 -15 -1 -15 5 0 6 -4 8 -8 5 -5 -3 -20 1 -35 9 -15 8 -27 11
-27 8 0 -3 -6 0 -13 6 -8 6 -24 13 -38 15 -13 3 -25 5 -26 7 -2 1 -6 2 -10 4
-5 1 -16 5 -25 8 -10 4 -26 10 -35 14 -10 3 -21 7 -25 8 -5 2 -10 4 -13 5 -3
1 -8 3 -12 4 -5 1 -14 5 -20 9 -7 5 -13 6 -13 2 0 -3 -10 0 -22 7 -13 6 -29
13 -35 15 -26 6 -39 10 -66 21 -16 7 -34 12 -41 12 -6 0 -16 4 -22 10 -5 5
-21 11 -34 14 -14 2 -27 5 -30 6 -3 2 -8 2 -12 1 -5 0 -8 3 -8 7 0 5 -7 9 -15
10 -8 1 -22 3 -30 4 -8 1 -15 5 -15 10 0 4 -3 7 -7 7 -19 -4 -73 15 -73 24 0
6 -3 8 -6 4 -4 -3 -19 0 -34 8 -15 8 -30 12 -32 9 -3 -2 -22 3 -44 13 -21 9
-42 18 -46 19 -5 1 -10 3 -13 4 -3 1 -9 4 -15 5 -5 1 -12 4 -15 5 -3 1 -8 3
-12 4 -5 1 -12 4 -18 7 -13 8 -68 23 -77 21 -5 -1 -8 3 -8 8 0 6 -3 9 -7 9 -5
-1 -11 0 -15 1 -5 1 -11 3 -15 4 -29 6 -120 40 -130 49 -7 5 -13 7 -13 3 0 -3
-16 0 -35 8 -19 8 -35 13 -35 10 0 -2 -10 2 -23 11 -13 8 -27 12 -31 8z"/>
<path d="M4335 18160 c-20 -9 -74 -28 -440 -155 -104 -36 -226 -79 -270 -94
-212 -75 -310 -110 -700 -246 -517 -180 -565 -198 -565 -206 0 -4 39 -29 88
-56 48 -27 245 -141 437 -253 193 -111 366 -212 385 -223 73 -41 319 -183 420
-242 58 -34 125 -73 150 -87 25 -14 83 -48 130 -75 47 -28 279 -162 515 -298
237 -137 525 -303 640 -370 116 -67 230 -133 255 -147 25 -14 182 -105 349
-202 167 -97 306 -176 309 -176 3 0 13 -6 21 -14 9 -7 41 -27 71 -43 30 -17
96 -54 145 -83 50 -28 108 -62 130 -75 22 -12 79 -45 127 -74 48 -28 91 -51
97 -51 6 0 11 -4 11 -10 0 -5 4 -10 9 -10 5 0 172 -94 371 -210 199 -115 366
-210 371 -210 5 0 9 -4 9 -10 0 -5 4 -10 10 -10 5 0 47 -22 92 -49 46 -27 101
-59 123 -71 22 -13 54 -31 70 -41 17 -11 37 -22 45 -26 8 -4 48 -26 88 -50 40
-24 74 -43 76 -43 2 0 35 -19 72 -42 129 -77 254 -148 264 -148 5 0 10 -4 10
-9 0 -5 10 -13 22 -17 12 -3 44 -21 72 -39 28 -18 74 -44 101 -59 28 -15 57
-31 65 -36 84 -52 152 -90 159 -90 5 0 14 -7 21 -15 11 -13 23 -9 94 28 44 23
83 45 84 50 2 4 7 7 12 7 13 0 274 143 282 155 4 5 8 7 8 3 0 -3 33 12 72 34
158 87 272 150 331 180 20 11 40 24 43 29 3 5 9 7 14 4 4 -3 13 2 20 10 7 8
16 15 21 15 5 0 48 22 96 48 99 55 189 104 278 152 33 18 63 37 66 42 3 5 8 8
11 6 4 -3 259 131 268 141 3 3 34 21 70 39 36 18 92 48 125 67 64 36 162 90
207 112 36 19 44 33 19 33 -12 0 -21 5 -21 11 0 5 -4 7 -10 4 -5 -3 -10 -2
-10 3 0 8 -71 41 -87 40 -3 0 -9 4 -12 9 -8 11 -253 133 -268 133 -6 0 -13 3
-15 8 -5 11 -105 62 -122 62 -8 0 -16 4 -18 8 -2 4 -401 207 -888 451 -487
244 -1371 688 -1965 986 -2304 1157 -3003 1505 -3021 1504 -11 0 -28 -4 -39
-9z"/>
<path d="M7900 18163 c-22 -7 -241 -92 -265 -103 -11 -4 -58 -23 -105 -40 -47
-18 -98 -39 -115 -45 -16 -7 -315 -124 -664 -259 -349 -136 -637 -249 -640
-251 -2 -3 -2 -7 0 -9 4 -4 282 -142 1404 -696 198 -98 506 -250 684 -339 178
-88 329 -161 336 -161 7 0 15 -4 17 -8 2 -7 213 -115 228 -117 14 -3 286 -141
291 -148 3 -5 8 -8 10 -7 2 1 92 -41 199 -93 107 -53 199 -96 204 -96 5 1 12
-3 15 -8 5 -7 138 -77 151 -79 3 0 173 -84 378 -186 204 -102 372 -184 372
-181 0 2 7 -3 16 -11 8 -9 19 -14 24 -11 5 3 10 2 12 -2 4 -10 110 -63 125
-63 6 0 13 -4 15 -8 4 -10 119 -66 131 -64 4 1 7 -3 7 -8 0 -6 9 -10 20 -10
11 0 20 -5 20 -11 0 -5 5 -7 10 -4 6 3 10 1 10 -4 0 -6 5 -11 11 -11 6 0 103
-45 215 -101 111 -56 205 -100 208 -98 3 2 11 -4 18 -13 7 -10 23 -19 35 -21
12 -2 26 -6 29 -10 12 -11 178 -91 187 -89 4 1 7 -3 7 -10 0 -6 3 -8 7 -5 3 4
15 0 25 -10 10 -9 18 -13 18 -9 0 4 12 -1 28 -12 15 -11 32 -21 37 -22 6 -1
81 -38 168 -81 86 -44 157 -76 157 -72 0 5 4 3 8 -3 9 -15 67 -44 87 -44 8 0
15 -4 15 -9 0 -4 25 -19 55 -32 30 -13 55 -27 55 -32 0 -4 5 -5 10 -2 6 3 17
-1 26 -9 8 -9 27 -19 42 -23 15 -3 29 -9 32 -13 7 -10 124 -64 133 -62 4 1 7
-2 7 -7 0 -8 21 -17 44 -19 5 0 12 -4 15 -9 3 -5 35 -23 71 -40 163 -77 426
-209 431 -217 4 -5 12 -5 18 -2 6 4 11 2 11 -4 0 -6 4 -9 9 -6 5 4 11 3 13 -2
4 -10 200 -107 211 -104 4 1 7 -3 7 -9 0 -5 5 -7 10 -4 6 3 10 2 10 -3 0 -9
37 -25 53 -23 4 1 7 -4 7 -10 0 -5 4 -8 9 -5 5 4 11 3 13 -1 3 -7 75 -44 81
-42 1 1 26 -13 55 -30 28 -17 52 -27 52 -22 0 5 11 12 25 15 14 4 25 11 25 16
0 6 7 10 15 10 8 0 15 5 15 10 0 6 5 10 11 10 7 0 18 8 26 18 8 9 12 12 9 6
-7 -14 156 93 166 110 4 6 8 8 8 3 0 -7 108 60 120 74 3 3 20 14 38 23 17 9
32 21 32 27 0 6 4 8 9 4 5 -3 15 1 23 8 7 7 34 26 60 42 27 17 48 34 48 38 0
5 5 5 10 2 6 -3 10 -1 10 5 0 6 4 9 9 5 6 -3 14 3 20 12 6 10 11 15 11 11 0
-5 32 15 70 42 39 27 70 47 70 42 0 -4 4 -2 8 4 4 6 34 28 67 49 33 21 63 42
66 47 3 5 8 9 10 7 2 -1 36 18 74 43 39 24 78 47 88 51 9 3 17 10 17 15 0 5
14 15 30 22 17 7 30 15 30 19 0 3 13 12 28 19 16 6 38 21 49 31 12 11 23 18
26 15 2 -2 10 2 17 11 7 8 17 15 22 15 9 0 25 12 84 60 7 5 15 6 18 3 3 -4 6
-1 6 5 0 7 4 12 10 12 10 0 101 60 111 73 3 5 9 7 12 5 3 -1 17 7 30 19 14 12
28 19 31 16 3 -3 8 2 12 11 3 9 10 13 15 10 5 -3 12 2 15 10 3 9 9 14 14 11 4
-2 17 5 30 17 l22 21 -73 31 c-41 16 -77 35 -81 41 -4 5 -8 7 -8 2 0 -4 -18 2
-40 13 -21 11 -46 20 -54 20 -8 0 -16 4 -18 10 -2 5 -12 11 -23 13 -11 2 -39
13 -62 25 -23 12 -49 22 -58 22 -8 0 -15 5 -15 11 0 5 -4 7 -10 4 -5 -3 -10
-1 -10 4 0 6 -6 11 -13 11 -7 0 -64 23 -127 51 -115 51 -161 71 -170 74 -3 1
-23 10 -45 20 -22 10 -42 19 -45 20 -3 0 -15 6 -27 13 -13 7 -23 9 -23 5 0 -4
-4 -3 -8 2 -6 9 -140 72 -167 79 -13 4 -36 14 -182 79 -67 30 -124 52 -127 49
-3 -3 -6 0 -6 7 0 7 -4 9 -10 6 -5 -3 -10 -1 -10 4 0 6 -7 11 -15 11 -8 0 -23
4 -33 9 -24 13 -116 55 -122 56 -3 1 -23 10 -45 20 -22 10 -42 19 -45 20 -3 1
-23 9 -45 19 -22 9 -42 17 -45 18 -3 0 -22 9 -42 19 -21 11 -38 17 -38 13 0
-3 -7 2 -16 10 -8 9 -20 14 -25 11 -5 -4 -9 -1 -9 4 0 6 -4 11 -9 11 -5 0 -22
5 -38 12 -15 6 -30 12 -33 13 -3 1 -27 12 -55 24 -59 27 -98 44 -105 46 -3 0
-19 8 -36 18 -17 9 -34 13 -38 10 -3 -4 -6 0 -6 7 0 7 -3 11 -6 7 -3 -3 -21 3
-40 14 -19 10 -41 19 -49 19 -8 0 -15 4 -15 10 0 5 -3 9 -7 8 -7 -1 -33 8 -83
29 -8 3 -18 5 -22 5 -5 -1 -8 3 -8 8 0 5 -3 9 -7 8 -5 0 -26 7 -48 17 -22 10
-42 19 -45 20 -3 0 -21 8 -40 17 -19 10 -42 18 -50 20 -8 2 -17 5 -20 9 -3 3
-27 15 -55 26 -27 12 -77 34 -110 50 -33 15 -63 28 -67 29 -5 1 -10 3 -13 4
-3 1 -8 3 -12 5 -5 1 -30 12 -58 25 -27 13 -52 25 -55 25 -3 1 -32 14 -65 29
-33 15 -78 35 -100 44 -22 8 -50 22 -62 30 -13 8 -23 11 -23 7 0 -4 -6 -2 -13
4 -8 6 -17 8 -20 4 -4 -3 -7 -1 -7 5 0 7 -4 12 -9 12 -5 0 -26 8 -47 17 -22 9
-41 17 -44 18 -3 1 -27 12 -55 25 -81 37 -135 61 -220 98 -44 19 -96 41 -115
50 -19 9 -37 16 -40 16 -3 1 -21 9 -40 18 -47 21 -102 46 -245 108 -66 28
-138 60 -160 70 -22 10 -74 32 -115 50 -41 18 -93 40 -115 50 -22 10 -134 60
-250 110 -115 51 -226 99 -245 108 -19 9 -37 16 -40 17 -3 1 -21 8 -40 17 -19
9 -73 32 -120 53 -47 21 -105 46 -130 57 -25 11 -61 27 -80 35 -19 8 -63 28
-98 44 -35 16 -65 29 -68 29 -3 0 -29 11 -57 24 -29 13 -106 47 -172 76 -66
29 -138 60 -160 70 -87 39 -120 53 -125 55 -3 1 -21 8 -40 17 -19 9 -87 38
-150 66 -63 27 -145 64 -183 81 -37 17 -70 31 -72 31 -2 0 -28 11 -57 24 -106
48 -147 66 -353 156 -273 119 -269 117 -343 151 -63 29 -75 32 -102 22z"/>
<path d="M18508 18145 c-21 -14 -38 -23 -38 -20 0 3 -9 -4 -20 -15 -12 -12
-25 -18 -29 -15 -5 2 -12 -2 -15 -11 -3 -8 -10 -12 -16 -9 -5 3 -10 1 -10 -6
0 -7 -3 -10 -6 -6 -3 3 -13 -1 -22 -9 -10 -8 -21 -14 -26 -13 -5 0 -12 -3 -15
-8 -9 -12 -89 -63 -100 -63 -5 0 -14 -7 -21 -15 -7 -8 -16 -13 -20 -10 -4 2
-15 -4 -25 -15 -10 -11 -22 -17 -26 -14 -5 3 -9 0 -9 -6 0 -6 -4 -8 -10 -5 -5
3 -10 2 -10 -3 0 -9 -36 -29 -54 -30 -5 0 -12 -4 -15 -9 -11 -17 -75 -57 -66
-42 4 7 -2 4 -14 -9 -12 -12 -27 -19 -33 -16 -7 4 -8 2 -4 -4 4 -7 2 -12 -3
-12 -16 0 -25 -3 -36 -12 -31 -25 -84 -55 -89 -50 -3 3 -6 1 -6 -4 0 -5 -17
-18 -37 -29 -21 -11 -40 -22 -43 -25 -3 -3 -18 -12 -35 -20 -16 -8 -49 -27
-72 -43 -24 -15 -43 -25 -43 -22 0 3 -9 -4 -20 -15 -12 -12 -25 -18 -30 -15
-6 4 -13 -1 -16 -9 -3 -9 -14 -16 -24 -16 -10 0 -21 -7 -24 -16 -3 -8 -10 -12
-16 -9 -5 3 -10 1 -10 -5 0 -6 -4 -9 -9 -5 -5 3 -12 1 -15 -4 -5 -8 41 -29 69
-32 6 0 16 -5 23 -11 6 -6 12 -7 12 -4 0 4 9 2 21 -4 11 -7 33 -14 47 -16 15
-3 31 -9 38 -15 6 -5 14 -6 17 -2 4 3 7 0 7 -7 0 -7 3 -11 6 -7 4 3 19 0 35
-9 16 -8 31 -14 34 -14 20 -1 65 -14 65 -20 0 -3 6 -7 13 -8 14 -1 51 -10 55
-12 1 -2 7 -4 12 -5 6 -1 12 -4 15 -5 3 -1 10 -4 15 -5 6 -1 13 -4 18 -5 4 -1
10 -2 15 -1 4 0 7 -4 7 -10 0 -5 5 -7 10 -4 6 4 17 2 25 -5 7 -6 26 -13 41
-16 16 -3 34 -10 41 -16 7 -6 13 -7 13 -2 0 4 5 3 12 -4 7 -7 22 -12 35 -12
13 0 23 -5 23 -11 0 -5 5 -7 10 -4 6 4 17 1 25 -5 8 -7 15 -9 15 -5 0 4 7 2
15 -5 8 -7 15 -9 15 -6 0 4 10 1 23 -6 12 -6 31 -13 42 -15 10 -2 22 -7 25
-11 3 -4 16 -9 30 -11 14 -1 27 -6 30 -10 5 -5 19 -10 45 -15 6 -1 16 -5 23
-9 6 -5 12 -5 12 -1 0 4 8 0 18 -9 10 -10 22 -14 25 -11 4 4 13 1 22 -6 8 -7
15 -10 15 -8 0 3 44 -10 98 -29 53 -19 104 -36 112 -38 8 -2 16 -4 18 -5 1 -2
5 -3 10 -4 4 -1 16 -7 27 -13 11 -6 23 -11 28 -12 21 -2 64 -15 82 -24 11 -6
25 -12 30 -12 35 -5 75 -19 75 -27 0 -5 4 -7 8 -4 5 3 20 -1 35 -9 15 -8 27
-11 27 -8 0 3 7 -1 17 -8 9 -8 17 -13 17 -11 2 7 96 -23 96 -30 0 -4 7 -5 15
-2 13 5 15 77 15 564 l0 558 -27 8 c-16 4 -31 8 -35 9 -5 2 -10 4 -13 5 -3 1
-9 3 -14 4 -5 0 -13 4 -17 9 -4 4 -15 7 -25 7 -10 0 -30 5 -46 12 -15 6 -36
13 -45 14 -9 2 -36 11 -60 19 -24 9 -50 17 -58 19 -8 2 -35 12 -60 21 -25 9
-54 17 -65 19 -11 1 -30 8 -41 14 -12 6 -24 8 -28 5 -3 -3 -6 -1 -6 6 0 7 -4
9 -10 6 -5 -3 -16 -3 -22 2 -7 4 -17 9 -23 10 -52 14 -62 12 -97 -12z"/>
<path d="M0 15215 l0 -1054 62 26 c35 13 77 31 93 38 24 11 644 267 1195 495
378 155 520 216 520 221 0 4 -17 18 -37 32 -63 42 -141 98 -633 447 -259 184
-481 342 -493 350 -12 8 -176 124 -364 257 l-343 242 0 -1054z"/>
<path d="M1825 14799 c-77 -32 -149 -63 -160 -68 -11 -6 -390 -164 -843 -352
l-822 -342 0 -1033 c0 -569 2 -1034 5 -1034 2 0 62 27 132 61 71 34 153 72
183 86 30 14 120 57 199 94 79 38 145 69 147 69 2 0 74 34 160 75 86 41 158
75 159 75 2 0 65 30 141 66 77 36 195 92 264 124 69 32 192 90 273 129 82 39
150 71 151 71 2 0 74 34 160 75 86 41 158 75 160 75 2 0 68 31 147 69 145 69
245 116 374 176 39 18 128 60 199 94 70 33 129 61 131 61 2 0 70 32 152 71
162 78 275 131 398 187 44 20 88 41 98 48 22 14 41 -2 -208 175 -232 164 -343
242 -473 334 -70 50 -137 97 -148 105 -30 20 -125 87 -492 348 -173 122 -321
222 -330 221 -10 0 -80 -27 -157 -60z"/>
<path d="M6400 14822 c-82 -40 -172 -83 -645 -307 -240 -114 -287 -136 -400
-190 -66 -32 -156 -74 -200 -95 -44 -21 -127 -60 -185 -88 -191 -91 -334 -159
-405 -192 -38 -18 -139 -66 -224 -106 -85 -41 -155 -74 -157 -74 -1 0 -91 -43
-199 -95 -108 -52 -198 -95 -200 -95 -1 0 -79 -36 -171 -81 -93 -45 -196 -94
-229 -109 -92 -43 -295 -139 -618 -294 -77 -36 -140 -66 -142 -66 -1 0 -91
-43 -199 -95 -109 -52 -199 -95 -200 -95 -2 0 -77 -35 -167 -79 -90 -43 -200
-95 -244 -116 -140 -66 -287 -136 -385 -182 -52 -25 -135 -65 -185 -88 -49
-23 -144 -68 -210 -100 -66 -31 -156 -74 -200 -95 -44 -21 -129 -61 -190 -90
-60 -29 -148 -70 -195 -93 -47 -22 -146 -69 -220 -104 -74 -35 -156 -74 -182
-86 l-48 -22 0 -1363 0 -1363 53 29 c46 26 177 98 352 192 33 18 132 72 220
120 88 48 187 102 220 120 84 46 157 85 335 182 85 47 182 100 215 117 33 18
78 42 100 55 22 12 76 41 120 65 44 24 256 139 470 256 839 457 1193 650 1265
688 41 22 89 47 105 57 17 10 55 31 85 47 30 17 107 59 170 93 63 35 149 81
190 103 41 22 122 66 180 97 58 32 130 71 160 88 71 38 150 81 280 152 58 32
129 71 158 86 29 16 61 34 70 39 9 6 67 37 127 69 61 33 130 70 155 84 25 13
68 37 95 51 28 15 76 42 108 59 103 57 223 123 362 197 39 21 113 61 165 90
92 50 146 80 294 160 38 20 83 46 100 56 17 10 40 23 52 28 11 5 65 34 120 64
54 30 126 69 159 87 33 18 127 69 208 114 81 44 169 92 195 106 51 27 182 98
277 151 155 85 222 121 248 132 15 6 27 15 27 19 0 4 4 8 9 8 8 0 223 114 371
197 25 14 79 44 120 66 75 40 255 138 340 185 25 13 83 45 130 70 47 25 86 46
88 47 2 2 -11 9 -27 16 -17 8 -31 17 -31 20 0 4 -12 12 -27 18 -16 6 -46 22
-68 36 -22 14 -47 28 -55 32 -8 4 -19 11 -25 15 -11 9 -537 318 -541 318 -1 0
-38 22 -81 48 -43 27 -98 60 -123 74 -25 14 -61 35 -80 46 -19 12 -46 27 -60
35 -57 31 -328 191 -360 212 -19 13 -55 34 -80 47 -25 14 -114 66 -198 116
-85 51 -156 92 -158 92 -3 0 -22 11 -42 25 -20 14 -43 25 -52 24 -8 0 -49 -17
-90 -37z"/>
<path d="M10956 14840 c-22 -11 -43 -26 -48 -33 -4 -6 -8 -9 -8 -4 0 8 -112
-52 -121 -66 -3 -5 -10 -9 -15 -9 -15 0 -89 -40 -96 -52 -4 -6 -8 -8 -8 -3 0
4 -18 -4 -40 -18 -22 -14 -44 -25 -50 -25 -5 0 -10 -5 -10 -11 0 -5 -4 -7 -10
-4 -5 3 -10 1 -10 -6 0 -7 -3 -9 -7 -6 -3 4 -11 3 -17 -2 -6 -5 -27 -18 -46
-28 -19 -11 -57 -32 -85 -48 -27 -15 -93 -50 -145 -78 -52 -28 -106 -57 -120
-66 -14 -9 -42 -26 -62 -36 -21 -11 -38 -24 -38 -29 0 -5 -3 -7 -6 -3 -3 3
-29 -7 -58 -23 -28 -15 -98 -54 -156 -85 -58 -32 -116 -65 -130 -74 -14 -8
-27 -16 -30 -16 -3 0 -12 -5 -20 -10 -8 -5 -35 -20 -59 -33 -24 -12 -65 -35
-90 -49 -25 -14 -84 -46 -131 -71 -47 -25 -87 -48 -90 -51 -3 -3 -25 -17 -50
-29 -54 -29 -119 -64 -222 -120 -43 -24 -92 -50 -110 -60 -18 -9 -34 -20 -36
-24 -2 -5 -10 -8 -17 -8 -8 0 -21 -7 -29 -16 -9 -8 -16 -13 -16 -10 0 3 -28
-11 -62 -31 -35 -19 -92 -51 -128 -71 -36 -19 -126 -69 -200 -110 -74 -42
-151 -84 -170 -94 -80 -43 -158 -85 -205 -112 -27 -16 -84 -47 -125 -69 -41
-22 -109 -59 -150 -82 -41 -23 -111 -61 -155 -85 -44 -24 -81 -47 -83 -52 -2
-4 -10 -8 -17 -8 -8 0 -40 -15 -72 -34 -75 -43 -145 -82 -318 -176 -32 -17
-89 -49 -125 -69 -36 -20 -72 -40 -80 -44 -8 -4 -37 -20 -65 -35 -27 -15 -81
-45 -120 -67 -38 -21 -149 -82 -245 -135 -96 -53 -210 -116 -253 -139 -43 -23
-93 -51 -110 -61 -18 -11 -45 -26 -62 -34 -16 -8 -55 -29 -85 -47 -30 -17 -98
-54 -150 -82 -52 -28 -97 -53 -100 -56 -3 -3 -23 -15 -45 -26 -22 -11 -65 -34
-95 -51 -50 -28 -162 -89 -250 -136 -19 -10 -42 -23 -50 -28 -13 -8 -256 -142
-450 -248 -36 -19 -99 -54 -140 -77 -41 -23 -106 -59 -145 -80 -38 -21 -110
-61 -160 -88 -49 -28 -112 -62 -140 -77 -27 -15 -138 -75 -245 -135 -107 -59
-224 -124 -260 -143 -36 -19 -144 -79 -240 -132 -96 -54 -202 -112 -235 -130
-233 -126 -320 -175 -323 -182 -2 -4 -8 -8 -14 -8 -5 0 -98 -49 -206 -108
-109 -60 -222 -122 -252 -139 -30 -16 -118 -65 -195 -108 -77 -42 -169 -93
-205 -113 -36 -19 -96 -52 -133 -74 -38 -21 -70 -38 -72 -38 -2 0 -32 -16 -66
-37 l-63 -36 95 -89 c133 -126 381 -363 449 -428 31 -30 121 -116 200 -190 78
-74 171 -162 205 -195 34 -33 136 -130 226 -215 89 -85 181 -173 204 -195 23
-22 104 -98 180 -170 75 -71 159 -151 185 -177 26 -26 50 -44 54 -41 3 4 6 1
6 -6 0 -6 32 -42 72 -79 40 -37 91 -86 114 -109 24 -24 44 -43 47 -43 2 0 49
-45 105 -100 98 -97 102 -100 120 -83 10 10 24 19 31 21 7 1 22 11 34 22 11
11 24 20 28 20 8 0 304 190 326 209 7 6 14 11 17 11 2 0 40 23 83 51 97 64
193 126 213 139 154 99 256 166 258 172 2 5 10 8 18 8 8 0 23 9 34 20 11 11
20 18 20 15 0 -2 46 26 103 64 56 37 117 76 135 86 17 11 32 23 32 28 0 4 5 5
10 2 6 -3 10 -1 10 4 0 6 6 11 14 11 7 0 25 11 40 25 15 14 34 25 42 25 7 0
14 3 14 8 0 4 16 16 35 26 19 11 35 24 35 29 0 6 3 8 6 5 5 -5 177 103 211
132 7 5 15 10 19 10 4 0 22 11 40 25 18 14 37 25 43 25 6 0 11 3 11 8 0 4 20
18 45 32 25 14 45 28 45 32 0 5 5 8 10 8 9 0 116 66 130 80 3 3 17 11 33 19
15 8 27 18 27 23 0 4 5 8 10 8 10 0 90 49 100 61 3 3 21 14 40 24 34 18 90 54
100 66 3 3 24 16 48 29 23 13 42 28 42 32 0 5 5 6 10 3 6 -3 13 1 16 9 3 9 10
16 16 16 5 0 61 34 124 75 63 41 119 75 123 75 5 0 11 4 13 8 2 6 446 297 515
337 9 6 26 18 37 28 11 9 24 17 29 17 6 0 25 11 43 25 18 14 37 25 43 25 5 0
14 6 18 13 4 7 25 21 46 32 20 11 37 23 37 27 0 5 4 8 9 8 12 0 135 81 139 92
2 4 7 6 12 3 4 -2 19 6 34 20 15 13 30 25 34 26 16 2 152 93 152 101 0 5 4 7
8 4 5 -3 18 4 30 14 12 11 25 20 30 20 4 0 18 9 30 20 12 12 22 18 22 16 0 -7
293 185 301 197 3 5 9 8 13 8 8 -2 89 51 98 64 5 7 8 7 8 0 0 -6 3 -6 8 1 4 5
24 20 45 33 21 13 44 30 52 38 8 8 15 12 15 9 0 -6 69 36 95 57 27 22 148 97
156 97 5 0 9 5 9 10 0 6 7 10 15 10 8 0 15 3 15 8 0 4 9 12 20 17 43 21 433
276 441 288 3 5 10 8 15 8 5 -1 17 6 27 14 9 8 19 15 21 15 5 0 134 84 151 98
6 4 18 11 28 15 9 3 17 11 17 17 0 6 5 8 10 5 6 -3 10 -1 10 4 0 6 3 10 8 9 7
-2 87 47 109 68 6 6 25 17 42 24 17 7 28 16 25 21 -3 5 0 9 6 9 17 0 130 71
130 81 0 5 3 8 8 7 10 -4 132 73 132 83 0 5 4 8 8 6 4 -1 77 43 162 99 85 55
172 110 193 123 20 12 37 27 37 32 0 6 5 7 10 4 6 -3 10 -1 10 6 0 7 3 10 6 6
5 -5 62 31 84 53 3 3 22 13 42 24 20 10 47 28 60 40 12 11 25 20 28 19 3 -1
15 7 28 17 12 11 22 18 22 15 0 -7 53 27 62 40 4 5 11 10 15 10 7 1 92 54 103
65 3 3 14 10 25 17 131 78 205 127 205 135 0 5 5 6 10 3 6 -3 10 -3 10 2 0 4
23 21 50 36 28 16 50 32 50 38 0 5 3 8 8 7 10 -4 132 73 132 83 0 5 3 8 8 7
10 -2 72 36 72 45 0 5 5 5 10 2 6 -3 10 -1 10 4 0 6 7 11 15 11 7 0 18 7 23
16 5 9 13 16 18 16 5 0 39 20 77 44 37 24 100 65 140 91 39 25 74 49 77 52 3
4 17 12 33 18 15 7 27 17 27 23 0 6 4 9 8 6 5 -3 19 4 30 15 12 11 22 16 22
12 0 -4 6 -1 13 8 7 9 22 19 35 23 12 4 22 12 22 17 0 5 7 9 15 9 7 0 19 8 24
18 6 9 11 14 11 9 0 -6 60 29 95 56 12 9 204 133 267 172 27 17 48 34 48 38 0
5 5 5 10 2 6 -3 10 -1 10 4 0 6 6 11 13 11 8 0 22 9 32 20 10 11 22 17 26 14
5 -3 12 2 15 10 3 9 10 16 16 16 5 0 28 13 51 29 23 16 46 29 51 29 5 0 12 4
15 9 3 5 24 20 46 33 22 13 49 32 59 42 11 10 25 18 32 18 7 0 18 8 23 18 6 9
11 13 11 9 0 -10 58 30 78 53 8 9 11 9 7 1 -5 -9 1 -8 19 4 14 10 26 22 26 27
0 5 4 7 9 4 5 -3 14 1 21 9 7 8 17 15 22 15 9 0 62 35 86 58 7 6 17 12 21 12
4 0 16 8 27 18 10 10 21 18 24 19 3 0 20 10 39 21 l34 21 -26 6 c-15 4 -27 11
-27 17 0 5 -4 7 -9 3 -5 -3 -12 -1 -16 5 -7 11 -96 54 -107 52 -5 -1 -8 2 -8
7 0 8 -37 24 -52 22 -5 -1 -8 3 -8 8 0 5 -13 12 -30 16 -16 4 -30 11 -30 16 0
6 -4 8 -9 5 -5 -4 -11 -3 -13 1 -4 10 -80 47 -90 45 -5 -1 -8 3 -8 9 0 5 -4 8
-9 5 -5 -4 -11 -2 -13 3 -1 5 -10 11 -18 13 -8 2 -17 5 -20 8 -9 9 -85 44 -92
42 -5 -1 -8 3 -8 9 0 5 -4 7 -10 4 -5 -3 -10 -2 -10 3 0 8 -35 23 -49 21 -2 0
-7 3 -10 8 -6 9 -116 63 -126 63 -3 -1 -13 6 -21 15 -9 8 -24 15 -35 15 -10 0
-19 3 -19 8 0 8 -49 32 -67 32 -7 0 -13 5 -13 11 0 5 -4 7 -10 4 -5 -3 -10 -2
-10 4 0 6 -12 14 -27 17 -16 4 -30 10 -33 13 -9 11 -174 91 -187 91 -7 0 -13
4 -13 9 0 10 -39 27 -52 23 -5 -1 -8 3 -8 9 0 5 -4 7 -10 4 -5 -3 -10 -2 -10
4 0 8 -31 23 -50 24 -3 0 -11 7 -18 14 -8 7 -18 11 -23 8 -5 -4 -9 -2 -9 3 0
9 -64 37 -66 30 0 -2 -8 5 -18 15 -10 9 -22 15 -27 12 -5 -4 -9 -2 -9 3 0 8
-97 55 -103 49 -2 -1 -11 6 -21 16 -10 9 -22 15 -27 12 -5 -4 -9 -2 -9 4 0 6
-12 14 -27 17 -16 4 -30 10 -33 14 -4 5 -589 301 -594 300 0 -1 -19 -10 -40
-20z"/>
<path d="M15448 14821 c-30 -21 -59 -40 -64 -42 -23 -10 -189 -123 -192 -131
-2 -4 -8 -6 -13 -2 -5 3 -9 0 -9 -5 0 -6 -7 -11 -15 -11 -8 0 -15 -4 -15 -9 0
-5 -15 -16 -32 -24 -18 -9 -43 -25 -55 -37 -13 -11 -26 -20 -30 -20 -5 0 -16
-7 -26 -15 -9 -8 -19 -15 -22 -15 -9 0 -190 -122 -197 -133 -4 -7 -8 -7 -8 -2
0 6 -7 1 -15 -9 -8 -11 -15 -16 -15 -10 0 5 -4 4 -8 -2 -4 -5 -32 -25 -62 -43
-30 -18 -66 -43 -79 -55 -14 -12 -21 -15 -17 -6 4 8 -2 5 -13 -8 -11 -13 -24
-23 -28 -23 -4 0 -17 -7 -28 -15 -11 -8 -69 -47 -130 -86 -60 -39 -113 -75
-116 -80 -3 -6 -8 -8 -10 -7 -5 4 -153 -93 -157 -103 -2 -5 -8 -8 -14 -8 -6 0
-27 -12 -47 -27 -20 -16 -39 -28 -43 -28 -3 0 -18 -10 -31 -22 -14 -12 -28
-19 -31 -16 -3 4 -6 1 -6 -5 0 -7 -6 -12 -14 -12 -8 0 -24 -11 -37 -25 -13
-13 -30 -25 -36 -25 -7 0 -13 -5 -13 -12 0 -6 -3 -9 -6 -5 -6 6 -123 -68 -135
-86 -3 -5 -8 -7 -10 -6 -6 4 -63 -34 -72 -48 -5 -8 -12 -11 -18 -8 -5 4 -12
-1 -15 -9 -3 -9 -9 -14 -14 -11 -4 2 -16 -3 -27 -13 -22 -20 -51 -39 -73 -49
-8 -4 -17 -9 -20 -13 -3 -3 -30 -21 -60 -40 -30 -19 -57 -37 -60 -40 -3 -4
-33 -23 -67 -44 -35 -21 -63 -42 -63 -48 0 -6 -3 -9 -6 -5 -7 6 -187 -110
-192 -125 -2 -4 -7 -6 -12 -3 -4 2 -19 -6 -33 -19 -14 -13 -28 -21 -31 -18 -3
3 -6 0 -6 -7 0 -7 -4 -10 -8 -7 -5 3 -21 -7 -37 -22 -16 -15 -32 -26 -35 -24
-3 1 -13 -5 -23 -13 -9 -8 -22 -15 -27 -15 -6 0 -10 -4 -10 -10 0 -5 -6 -10
-13 -10 -8 0 -22 -9 -32 -20 -10 -11 -20 -18 -23 -15 -3 2 -13 -5 -23 -17 -11
-11 -19 -18 -19 -15 0 6 -214 -132 -240 -155 -8 -7 -17 -13 -20 -13 -8 0 -124
-78 -131 -88 -3 -5 -10 -8 -15 -8 -5 1 -16 -5 -25 -12 -8 -8 -41 -29 -72 -48
-31 -18 -57 -37 -57 -41 0 -5 -6 -8 -14 -8 -7 0 -25 -11 -40 -25 -14 -13 -30
-25 -34 -26 -15 -2 -62 -34 -62 -42 0 -4 -5 -5 -10 -2 -6 3 -13 0 -16 -8 -3
-9 -16 -18 -30 -21 -13 -4 -24 -11 -24 -16 0 -6 -7 -10 -15 -10 -8 0 -15 -4
-15 -10 0 -5 -7 -10 -15 -10 -8 0 -15 -4 -15 -10 0 -5 -5 -10 -11 -10 -6 0
-25 -11 -43 -25 -18 -14 -38 -25 -44 -25 -7 0 -12 -4 -12 -10 0 -5 -16 -16
-35 -25 -19 -9 -39 -23 -46 -31 -6 -8 -15 -14 -19 -14 -11 0 -199 -126 -229
-153 -14 -12 -21 -15 -16 -7 8 13 7 13 -11 0 -10 -8 -21 -18 -24 -21 -3 -3
-20 -14 -37 -23 -18 -9 -33 -21 -33 -27 0 -6 -5 -7 -10 -4 -6 3 -13 0 -16 -8
-3 -9 -16 -18 -30 -21 -13 -4 -24 -11 -24 -16 0 -6 -5 -10 -10 -10 -11 0 -82
-44 -113 -70 -10 -8 -20 -14 -23 -12 -2 1 -11 -3 -18 -11 -8 -7 -55 -39 -105
-71 -50 -32 -91 -62 -91 -67 0 -5 -3 -8 -8 -6 -8 2 -163 -95 -186 -118 -8 -9
-19 -16 -23 -17 -11 -1 -85 -49 -101 -65 -7 -7 -18 -13 -23 -13 -10 0 -62 -35
-87 -57 -7 -7 -18 -13 -23 -13 -8 0 -35 -20 -65 -48 -8 -7 -14 -11 -14 -8 0 4
-18 -6 -40 -20 -22 -15 -40 -31 -40 -35 0 -5 -3 -8 -7 -7 -7 3 -75 -36 -98
-55 -5 -4 -53 -35 -105 -69 -52 -33 -96 -65 -98 -69 -2 -5 -9 -9 -16 -9 -7 0
-23 -10 -36 -22 -14 -13 -26 -21 -28 -19 -2 1 -15 -6 -28 -18 -13 -11 -26 -20
-29 -18 -2 1 -13 -6 -25 -15 -11 -10 -20 -14 -20 -10 0 4 -4 2 -8 -4 -9 -13
-101 -74 -112 -74 -4 0 -10 -3 -12 -8 -1 -4 -55 -41 -118 -82 -63 -40 -117
-76 -120 -79 -3 -4 -18 -13 -33 -21 -16 -8 -39 -23 -51 -35 -12 -11 -25 -21
-29 -22 -15 -3 -202 -126 -205 -135 -2 -4 -8 -8 -13 -8 -8 0 -76 -41 -104 -63
-5 -4 -46 -31 -90 -59 -44 -28 -81 -55 -83 -59 -2 -5 -9 -9 -16 -9 -7 0 -25
-11 -40 -25 -15 -14 -33 -25 -41 -25 -8 0 -19 -8 -24 -17 -6 -10 -11 -14 -11
-9 0 9 -70 -40 -82 -58 -4 -6 -8 -7 -8 -2 0 4 -15 -3 -34 -18 -19 -14 -39 -26
-45 -26 -6 0 -11 -4 -11 -10 0 -5 -7 -10 -15 -10 -8 0 -15 -3 -15 -7 0 -5 -23
-21 -51 -38 -28 -16 -57 -36 -64 -42 -8 -7 -18 -13 -24 -13 -6 0 -11 -4 -11
-10 0 -5 -4 -10 -9 -10 -12 0 -105 -61 -109 -72 -2 -4 -8 -8 -13 -8 -9 0 -179
-109 -189 -121 -3 -3 -10 -8 -16 -10 -18 -7 -183 -114 -183 -119 0 -6 212
-166 215 -163 2 1 15 -9 31 -23 35 -31 442 -334 448 -334 3 0 14 -8 24 -17 38
-35 49 -42 55 -36 3 4 6 -1 6 -10 0 -10 5 -17 11 -17 12 0 92 -59 97 -72 2 -5
8 -8 13 -8 5 0 33 -18 62 -40 29 -22 65 -51 81 -63 16 -12 33 -24 39 -26 6 -2
21 -15 34 -27 13 -13 27 -24 32 -24 4 0 16 -8 27 -17 10 -10 37 -31 59 -47 22
-17 43 -35 47 -40 4 -6 8 -7 8 -2 0 6 7 1 15 -10 8 -10 15 -15 15 -11 0 4 10
-2 22 -13 55 -50 94 -80 106 -80 6 0 12 -3 12 -7 0 -5 17 -19 37 -33 40 -27
67 -47 88 -67 8 -7 16 -13 19 -13 3 0 17 -9 30 -21 13 -12 26 -19 29 -18 3 2
14 -7 26 -21 11 -14 20 -22 21 -18 0 3 12 -4 28 -17 77 -65 144 -116 137 -104
-4 8 1 5 12 -6 11 -11 32 -29 47 -40 16 -11 33 -25 40 -30 6 -6 36 -28 66 -50
30 -22 57 -43 58 -47 2 -5 10 -8 17 -8 7 0 15 -3 17 -7 5 -13 128 -105 128
-97 0 4 6 1 12 -7 20 -24 95 -79 108 -79 6 0 9 -4 5 -9 -3 -5 4 -12 15 -16 11
-3 20 -11 20 -16 0 -5 7 -9 15 -9 9 0 18 -7 21 -15 4 -8 10 -13 14 -10 4 3 11
-2 14 -11 4 -9 9 -14 12 -11 3 3 17 -6 30 -20 13 -14 24 -23 24 -19 0 7 15 -4
54 -41 13 -12 27 -19 30 -16 3 4 6 1 6 -5 0 -7 5 -12 11 -12 6 0 20 -10 31
-22 11 -13 17 -16 13 -8 -4 10 -2 9 8 -2 15 -19 148 -118 157 -118 3 0 22 15
42 33 20 17 46 39 59 47 12 8 38 29 58 45 48 40 58 48 73 60 76 58 116 92 131
109 10 12 16 14 12 6 -4 -8 4 -4 18 10 14 14 40 36 58 50 18 14 41 33 51 43
10 9 18 14 18 10 0 -5 4 -3 8 2 4 6 32 30 62 55 30 25 58 49 62 55 4 5 8 6 8
1 0 -5 8 0 18 10 9 11 37 35 62 54 25 19 47 38 48 42 2 5 9 8 14 8 6 0 25 15
41 33 17 17 26 25 22 17 -8 -14 13 4 71 58 13 13 24 20 24 17 0 -3 10 4 23 16
12 12 47 40 77 62 30 22 63 50 73 61 10 12 22 21 27 21 4 0 27 17 49 37 23 20
41 34 41 31 0 -3 10 5 23 18 12 14 24 24 27 24 7 0 32 20 71 58 16 15 29 24
29 20 0 -4 4 -3 8 3 12 17 273 224 284 224 5 0 6 5 3 10 -3 6 0 10 8 10 8 0
18 7 21 16 4 9 9 14 12 11 3 -3 13 2 23 11 9 10 34 31 56 47 21 17 49 39 60
50 12 11 23 20 26 20 3 0 27 18 53 40 109 90 128 105 139 105 4 0 6 4 2 9 -3
5 4 12 15 16 11 3 20 11 20 16 0 6 4 8 10 4 5 -3 17 6 26 20 9 14 19 24 21 21
3 -3 16 7 29 21 13 14 24 22 24 18 0 -4 11 4 25 19 14 15 25 24 25 21 0 -4 6
0 13 7 8 7 31 27 52 43 21 17 49 39 61 50 13 11 42 33 64 49 22 17 40 33 40
38 0 4 5 8 11 8 10 0 27 13 85 67 13 12 24 19 24 15 1 -4 10 4 20 17 11 13 20
20 20 16 0 -3 6 0 14 7 7 8 33 30 56 49 23 18 48 39 55 46 7 7 15 9 19 6 3 -4
6 -2 6 3 0 6 32 34 70 63 39 30 70 58 70 63 0 5 5 6 10 3 6 -3 13 1 16 9 3 9
13 16 21 16 8 0 11 5 8 10 -3 6 -1 10 4 10 11 0 38 20 73 53 10 9 18 15 18 12
0 -5 43 31 76 62 7 7 15 13 18 13 5 0 39 28 87 73 10 9 22 17 25 17 12 0 53
38 47 44 -3 3 1 6 10 6 9 0 17 5 17 10 0 6 6 10 13 10 7 0 23 10 35 23 11 12
33 31 47 42 14 11 35 27 45 35 10 8 33 26 51 40 18 14 37 30 44 35 6 6 31 26
55 45 67 52 69 53 95 78 13 12 29 22 35 22 5 0 10 3 10 8 0 4 17 18 37 32 20
14 46 34 58 45 11 11 45 39 75 62 30 23 65 51 76 62 12 11 25 17 28 14 3 -4 6
-2 6 4 0 5 21 24 46 42 25 18 53 41 62 50 9 9 35 30 57 46 22 15 48 36 57 46
9 9 37 32 62 50 25 18 46 37 46 42 0 6 3 7 6 4 4 -4 15 3 25 15 11 11 19 18
19 15 0 -4 8 1 18 11 23 21 87 74 128 104 17 13 38 30 46 38 9 8 28 24 44 35
15 11 43 32 62 48 19 15 39 27 44 27 5 0 7 4 4 9 -3 4 6 13 19 19 14 7 25 16
25 22 0 5 5 10 11 10 7 0 22 11 34 24 13 14 26 22 29 19 3 -4 6 -1 6 5 0 7 7
12 16 12 8 0 13 4 9 9 -3 5 3 12 13 15 9 3 35 23 57 43 21 21 35 31 30 23 -4
-8 5 -1 22 15 38 38 73 66 73 60 0 -3 14 8 30 25 17 17 30 28 30 25 0 -3 14 7
31 22 17 16 36 27 41 25 5 -1 7 2 3 8 -3 5 -2 10 2 10 5 0 21 11 36 25 15 14
27 23 27 18 0 -4 6 0 13 8 6 9 34 33 62 55 27 21 55 44 62 49 6 6 26 21 44 35
18 14 41 33 51 43 10 9 22 17 28 17 5 0 14 8 19 18 6 9 11 14 11 10 0 -4 21
13 48 37 26 25 51 45 56 45 5 0 19 11 32 25 13 14 26 25 30 25 4 0 14 7 23 15
51 46 61 55 61 50 0 -3 14 10 31 28 17 17 32 30 32 27 2 -4 37 22 71 55 12 11
23 20 26 20 3 0 15 9 28 20 54 49 63 55 71 55 6 0 17 10 25 22 9 12 16 19 16
14 0 -5 9 1 20 14 11 13 20 20 20 16 0 -4 13 7 29 23 16 16 31 27 34 24 3 -2
11 5 17 17 6 12 14 19 17 17 3 -3 18 8 34 24 16 16 29 26 29 22 0 -4 6 -1 13
7 7 8 35 33 62 55 28 22 55 44 62 50 7 5 27 21 44 35 18 14 40 33 51 43 10 9
18 15 18 12 0 -6 35 23 73 60 17 17 27 23 22 15 -4 -8 1 -6 12 5 39 39 83 75
83 68 0 -4 8 2 19 13 10 10 33 30 51 44 18 14 43 35 56 48 13 13 24 20 24 17
0 -3 9 3 19 13 49 45 81 71 81 67 0 -3 8 3 18 13 10 9 33 28 51 42 19 14 42
32 52 41 10 8 30 24 44 35 15 10 40 32 56 47 16 16 29 26 29 22 0 -4 6 0 13 7
8 7 28 24 46 38 18 14 42 33 54 43 12 10 37 30 55 45 18 15 42 35 52 44 10 9
22 13 26 10 3 -4 4 0 2 8 -3 8 -11 14 -17 12 -6 -1 -11 3 -11 9 0 5 -4 7 -10
4 -5 -3 -10 -1 -10 5 0 6 -4 8 -10 5 -5 -3 -10 -2 -10 2 0 5 -10 9 -22 10 -11
1 -25 8 -29 15 -5 7 -9 9 -9 4 0 -5 -6 -3 -13 3 -8 6 -17 8 -20 4 -4 -3 -7 -1
-7 6 0 7 -4 9 -10 6 -5 -3 -10 -1 -10 4 0 6 -3 10 -7 9 -5 -1 -26 7 -48 17
-22 10 -43 19 -47 19 -3 1 -10 4 -14 9 -4 4 -16 7 -26 7 -10 0 -18 5 -18 10 0
6 -8 10 -18 10 -10 0 -29 8 -42 17 -14 10 -26 17 -27 16 -7 -4 -43 11 -43 18
0 5 -7 6 -15 3 -8 -4 -15 -1 -15 7 0 7 -2 10 -6 7 -3 -3 -32 7 -65 23 -32 16
-61 29 -64 29 -2 0 -28 11 -57 24 -94 42 -175 77 -188 81 -3 0 -24 11 -46 23
-23 11 -44 18 -48 15 -3 -4 -6 -1 -6 5 0 7 -3 11 -7 10 -5 -1 -21 4 -36 10
-16 7 -33 12 -38 12 -5 0 -9 4 -9 10 0 5 -3 9 -7 8 -8 -1 -27 6 -108 43 -27
12 -53 23 -57 24 -5 2 -11 4 -15 5 -5 1 -11 2 -15 1 -5 0 -8 3 -8 8 0 5 -13
12 -30 16 -16 4 -30 11 -30 16 0 5 -3 8 -7 7 -5 -2 -28 6 -53 16 -25 11 -47
20 -50 21 -3 1 -27 12 -55 25 -27 13 -52 24 -55 24 -3 1 -31 14 -64 29 -32 15
-65 27 -72 27 -8 0 -14 5 -14 11 0 5 -4 8 -9 4 -5 -3 -12 -1 -16 5 -4 6 -11 8
-16 5 -5 -4 -9 -1 -9 6 0 7 -3 9 -7 6 -3 -4 -15 0 -25 10 -10 9 -18 13 -18 9
0 -3 -22 5 -50 19 -27 14 -50 22 -50 18 0 -5 -4 -2 -8 5 -5 7 -17 14 -28 16
-11 2 -37 13 -57 25 -20 11 -37 18 -37 15 0 -3 -12 2 -27 10 -47 26 -165 76
-179 76 -8 0 -14 5 -14 11 0 5 -4 8 -9 5 -5 -4 -11 -2 -13 4 -1 5 -12 11 -23
13 -11 1 -25 6 -32 10 -16 10 -285 128 -298 131 -5 1 -15 5 -21 9 -6 3 -36
-11 -66 -32z"/>
<path d="M19184 14192 c4 -7 3 -12 -3 -12 -10 0 -48 -30 -89 -70 -14 -14 -22
-18 -17 -10 4 8 -5 0 -22 -17 -16 -18 -35 -33 -41 -33 -6 0 -16 -9 -22 -21 -7
-11 -14 -18 -17 -15 -3 3 -18 -7 -34 -22 -58 -56 -82 -77 -74 -62 5 8 -7 -1
-27 -20 -19 -19 -47 -44 -62 -55 -15 -11 -44 -34 -64 -52 -20 -17 -41 -29 -46
-26 -5 4 -6 1 -2 -5 4 -7 3 -12 -2 -12 -6 0 -20 -11 -33 -25 -13 -13 -28 -25
-33 -25 -5 0 -16 -7 -25 -15 -27 -25 -77 -69 -111 -95 -17 -14 -40 -33 -51
-42 -10 -10 -19 -15 -19 -11 0 3 -10 -6 -23 -20 -12 -15 -26 -27 -31 -27 -8 0
-40 -26 -81 -67 -12 -13 -27 -23 -33 -23 -6 0 -16 -8 -21 -17 -6 -10 -11 -15
-11 -11 0 4 -13 -5 -29 -20 -16 -15 -43 -38 -61 -52 -18 -14 -44 -36 -57 -50
-14 -14 -22 -18 -18 -10 5 8 -6 2 -22 -15 -17 -16 -45 -41 -62 -55 -17 -14
-42 -35 -55 -47 -14 -13 -29 -23 -33 -23 -5 0 -16 -8 -24 -17 -20 -23 -59 -54
-59 -48 0 2 -11 -7 -25 -20 -13 -14 -29 -25 -35 -25 -6 0 -9 -4 -5 -9 3 -5 -3
-12 -14 -16 -11 -3 -22 -12 -25 -20 -3 -8 -10 -15 -16 -15 -6 0 -17 -6 -25
-12 -7 -7 -27 -24 -45 -38 -18 -14 -46 -37 -62 -52 -16 -16 -33 -28 -38 -28
-6 0 -15 -9 -22 -20 -7 -11 -17 -20 -22 -20 -5 0 -15 -8 -23 -17 -9 -11 -11
-12 -7 -3 4 8 -9 -3 -29 -24 -20 -22 -37 -36 -37 -31 0 4 -8 -1 -17 -11 -10
-11 -38 -35 -63 -54 -25 -19 -51 -40 -58 -48 -8 -7 -30 -25 -50 -40 -41 -30
-86 -68 -114 -94 -10 -10 -18 -15 -18 -11 0 3 -8 -4 -19 -15 -10 -12 -22 -22
-27 -22 -5 0 -19 -12 -31 -27 -13 -14 -23 -23 -23 -19 0 4 -13 -7 -30 -24 -16
-17 -30 -28 -30 -25 0 3 -9 -3 -21 -14 -12 -11 -37 -32 -56 -48 -19 -15 -46
-38 -59 -50 -13 -12 -24 -20 -24 -17 0 4 -45 -34 -76 -64 -8 -7 -14 -11 -14
-9 0 6 -47 -33 -91 -75 -16 -15 -29 -25 -29 -21 0 3 -9 -4 -20 -17 -11 -13
-20 -20 -20 -16 0 4 -13 -7 -30 -24 -16 -17 -30 -27 -30 -23 0 4 -4 3 -8 -3
-4 -6 -34 -32 -67 -59 -33 -26 -65 -55 -72 -64 -7 -9 -13 -12 -13 -7 0 5 -11
-3 -25 -18 -13 -14 -28 -26 -32 -26 -4 0 -24 -15 -44 -33 -55 -48 -103 -89
-140 -117 -18 -14 -43 -35 -56 -48 -12 -12 -26 -23 -30 -24 -9 -3 -37 -25 -65
-50 -10 -10 -21 -18 -24 -18 -4 0 -16 -10 -28 -23 -12 -13 -29 -26 -39 -30 -9
-3 -17 -11 -17 -17 0 -5 -7 -10 -16 -10 -8 0 -12 -4 -9 -10 3 -5 -3 -10 -15
-10 -12 0 -18 -4 -15 -10 3 -5 2 -10 -3 -10 -4 0 -23 -13 -42 -30 -18 -16 -44
-37 -58 -47 -13 -10 -29 -23 -36 -28 -11 -10 -91 -75 -130 -105 -10 -8 -26
-23 -35 -32 -8 -10 -19 -18 -23 -18 -5 0 -17 -8 -27 -17 -40 -37 -79 -70 -134
-112 -31 -24 -57 -47 -57 -52 0 -5 -7 -9 -15 -9 -8 0 -19 -9 -25 -20 -6 -11
-15 -18 -20 -15 -5 3 -16 -5 -24 -17 -9 -12 -16 -19 -16 -14 0 5 -14 -5 -30
-23 -17 -17 -34 -31 -39 -31 -5 0 -11 -3 -13 -7 -4 -11 -118 -106 -118 -99 0
3 -13 -7 -28 -22 -16 -15 -46 -40 -68 -57 -21 -16 -49 -40 -61 -52 -13 -12
-23 -19 -23 -16 0 3 -11 -6 -25 -21 -13 -14 -27 -26 -31 -26 -6 0 -29 -19 -83
-70 -14 -13 -26 -22 -26 -20 0 6 -45 -32 -68 -57 -11 -12 -24 -20 -28 -17 -4
2 -13 -5 -19 -16 -6 -11 -15 -18 -21 -15 -5 4 -9 -2 -9 -11 0 -10 -3 -15 -6
-11 -4 3 -12 1 -18 -6 -7 -7 -30 -25 -51 -42 -22 -16 -49 -40 -62 -52 -13 -12
-23 -19 -23 -16 0 3 -8 -4 -19 -15 -10 -12 -22 -22 -26 -22 -5 0 -21 -12 -36
-26 -70 -65 -79 -73 -79 -68 0 3 -11 -5 -24 -18 -13 -13 -39 -34 -57 -48 -18
-14 -41 -34 -51 -44 -10 -11 -18 -16 -18 -12 0 4 -10 -3 -22 -15 -13 -11 -49
-41 -80 -66 -32 -25 -58 -48 -58 -50 0 -3 7 -11 15 -19 8 -9 15 -13 15 -9 0 3
6 1 13 -5 20 -17 267 -169 267 -164 0 3 10 -4 22 -15 11 -11 25 -18 30 -15 4
3 8 1 8 -4 0 -5 20 -20 45 -33 25 -13 45 -27 45 -31 0 -5 5 -8 11 -8 6 0 23
-9 37 -19 15 -10 29 -18 32 -17 3 0 12 -5 20 -12 23 -19 161 -102 171 -102 5
0 9 -4 9 -9 0 -5 10 -13 23 -17 12 -4 24 -9 27 -13 8 -10 44 -31 63 -37 9 -4
17 -11 17 -16 0 -5 5 -6 10 -3 6 3 10 2 10 -4 0 -5 10 -13 23 -17 12 -4 24
-10 27 -13 3 -4 41 -29 85 -55 44 -27 91 -56 105 -65 14 -8 29 -14 33 -13 4 1
10 -5 13 -13 4 -8 12 -15 18 -15 7 0 21 -8 32 -18 10 -10 21 -18 24 -18 3 1
30 -15 60 -34 30 -19 58 -33 61 -32 4 0 15 -8 24 -18 10 -11 24 -20 30 -20 7
0 18 -7 25 -15 7 -8 16 -13 20 -10 5 3 10 1 12 -3 4 -11 152 -102 166 -102 7
0 12 -3 12 -7 0 -5 27 -24 60 -42 33 -19 60 -39 60 -44 0 -4 4 -6 8 -3 5 3 18
-4 30 -14 12 -11 28 -20 37 -20 8 0 15 -4 15 -10 0 -5 7 -10 15 -10 8 0 15 -4
15 -10 0 -5 7 -10 15 -10 8 0 15 -5 15 -11 0 -5 5 -7 10 -4 6 3 10 1 10 -5 0
-6 4 -9 8 -6 5 3 16 -4 25 -15 10 -11 22 -17 27 -14 6 3 10 2 10 -3 0 -5 14
-15 30 -22 17 -7 30 -16 30 -21 0 -5 11 -11 25 -15 14 -3 25 -10 25 -15 0 -5
7 -9 15 -9 8 0 15 -3 15 -7 0 -5 18 -17 40 -27 22 -11 40 -23 40 -28 0 -5 5
-6 10 -3 6 3 10 1 10 -5 0 -6 5 -8 10 -5 6 3 10 2 10 -3 0 -5 14 -15 30 -22
17 -7 30 -17 30 -22 0 -5 5 -6 10 -3 6 3 10 1 10 -4 0 -6 7 -11 15 -11 8 0 15
-4 15 -8 0 -5 18 -17 40 -27 21 -10 48 -26 60 -37 11 -10 20 -15 20 -11 0 4 7
-2 16 -13 8 -10 12 -13 9 -6 -4 8 15 -1 41 -20 72 -49 87 -58 107 -64 9 -4 17
-11 17 -17 0 -6 3 -8 6 -4 3 3 11 1 18 -4 6 -5 36 -25 66 -44 30 -19 60 -39
67 -45 7 -5 19 -10 28 -10 8 0 15 -3 15 -8 0 -4 17 -16 38 -27 20 -11 53 -32
73 -47 20 -15 39 -25 43 -21 3 3 6 1 6 -5 0 -7 7 -12 15 -12 8 0 15 -5 15 -11
0 -5 5 -7 10 -4 6 3 10 1 10 -4 0 -6 6 -11 13 -11 8 0 25 -9 38 -20 37 -31 44
-35 59 -38 8 -2 17 -7 20 -12 3 -4 28 -20 57 -34 28 -15 57 -34 64 -42 6 -7
15 -11 20 -8 5 3 9 0 9 -5 0 -6 7 -11 15 -11 8 0 15 -4 15 -8 0 -5 11 -14 25
-20 32 -15 38 -15 30 -2 -3 6 2 10 11 10 10 0 15 2 12 5 -3 3 48 60 113 126
66 66 119 125 119 130 0 6 3 8 8 6 4 -2 17 7 29 20 12 13 19 23 16 23 -4 0 6
13 22 30 15 16 32 27 37 24 4 -3 8 0 8 6 0 5 35 46 78 90 42 44 97 102 122
129 25 27 48 47 53 44 4 -2 7 0 7 5 0 5 38 49 85 97 47 48 91 95 98 104 6 9
23 25 37 34 13 9 21 17 17 17 -4 0 44 52 107 115 64 63 113 115 110 115 -3 0
12 17 33 37 21 21 41 37 46 35 4 -1 7 2 7 6 0 16 37 52 44 44 4 -4 6 -2 4 3
-1 6 29 42 67 80 39 39 78 82 88 95 10 14 15 19 11 11 -5 -9 -3 -12 4 -7 7 4
12 12 12 17 0 6 59 69 130 140 72 71 130 134 130 139 0 5 9 12 21 15 11 4 18
9 16 12 -3 2 48 58 113 123 65 66 115 122 112 125 -3 3 2 5 11 5 9 0 16 6 14
13 -1 6 4 11 10 10 7 -2 12 3 10 10 -1 6 4 11 10 10 7 -2 12 3 10 10 -1 6 4
11 11 10 17 -4 18 4482 0 4493 -7 4 -8 3 -4 -4z"/>
<path d="M1330 9549 c-30 -16 -86 -47 -125 -68 -38 -21 -86 -47 -105 -58 -19
-11 -111 -62 -205 -113 -93 -51 -183 -101 -200 -110 -38 -21 -243 -134 -315
-173 -30 -16 -84 -46 -120 -67 -36 -20 -69 -39 -75 -41 -5 -2 -49 -26 -98 -52
l-87 -49 0 -2355 0 -2356 42 -56 c23 -31 44 -58 47 -61 7 -6 174 -226 206
-270 22 -31 75 -99 90 -117 6 -6 28 -36 50 -67 22 -31 43 -56 47 -56 4 0 8 -6
8 -14 0 -8 3 -16 8 -18 4 -1 27 -30 51 -63 25 -33 48 -62 53 -63 4 -2 8 -8 8
-14 0 -6 10 -19 22 -29 11 -11 17 -19 12 -19 -5 0 -4 -4 2 -8 5 -4 46 -54 89
-112 90 -120 86 -114 125 -160 16 -19 30 -41 30 -48 0 -7 5 -10 10 -7 6 3 10
1 10 -5 0 -11 89 -132 130 -177 11 -12 20 -25 20 -29 0 -4 7 -14 15 -23 33
-35 95 -120 95 -131 0 -6 4 -8 10 -5 5 3 10 1 10 -5 0 -11 100 -143 112 -148
5 -2 8 -10 8 -18 0 -8 3 -14 8 -14 4 0 18 -17 32 -38 14 -20 27 -39 30 -42 3
-3 28 -34 55 -70 27 -36 54 -68 60 -72 5 -4 6 -8 2 -8 -4 0 3 -11 15 -25 51
-57 58 -65 53 -65 -5 0 19 -31 48 -62 9 -10 17 -22 17 -28 0 -5 5 -10 10 -10
6 0 10 -7 10 -16 0 -8 4 -12 10 -9 5 3 10 -1 10 -9 0 -9 5 -16 10 -16 6 0 10
-6 10 -14 0 -8 3 -16 8 -18 4 -2 27 -30 52 -63 25 -33 47 -62 50 -65 3 -3 25
-32 50 -65 25 -33 48 -62 53 -63 4 -2 5 -8 1 -13 -3 -5 -1 -9 4 -9 5 0 21 -17
34 -37 14 -21 38 -51 54 -67 16 -16 23 -26 16 -22 -14 8 77 -111 114 -150 12
-13 20 -24 18 -27 -2 -2 12 -20 31 -41 18 -20 34 -40 35 -44 0 -4 15 -23 32
-42 17 -19 30 -36 29 -38 -2 -3 40 -59 137 -181 34 -44 62 -84 62 -89 0 -5 11
-18 25 -28 14 -10 25 -23 25 -29 0 -6 13 -25 29 -43 17 -17 27 -32 24 -32 -3
0 3 -8 13 -18 10 -9 24 -25 29 -34 11 -18 123 -166 140 -184 5 -7 19 -24 30
-40 11 -15 26 -33 32 -40 7 -7 13 -17 13 -22 0 -6 3 -12 8 -14 4 -2 56 -68
116 -148 60 -80 115 -150 122 -156 8 -6 11 -14 7 -17 -3 -4 2 -9 11 -13 9 -3
16 -12 16 -20 0 -12 596 -14 4056 -14 3241 0 4054 3 4048 13 -4 6 -32 35 -62
62 -30 28 -133 128 -229 223 -95 94 -178 172 -184 172 -6 0 -7 5 -4 10 3 6 -1
10 -10 10 -9 0 -13 5 -10 10 3 6 2 10 -3 10 -13 0 -192 178 -192 191 0 5 -3 8
-7 7 -5 -2 -41 30 -82 70 -41 39 -78 72 -83 72 -5 0 -7 4 -3 9 3 5 -4 12 -15
16 -11 3 -20 13 -20 21 0 8 -4 14 -10 14 -13 0 -50 37 -43 43 2 3 -5 8 -16 12
-12 3 -21 10 -21 14 0 4 -7 16 -16 27 -8 10 -12 12 -8 4 5 -8 -47 40 -113 108
-67 67 -127 122 -133 122 -6 0 -8 5 -5 10 3 6 -1 10 -10 10 -9 0 -13 5 -10 10
3 5 3 10 -2 10 -4 0 -19 10 -33 21 -14 11 -19 17 -11 13 9 -5 12 -3 7 4 -4 7
-11 12 -15 12 -5 0 -71 62 -147 138 -77 75 -152 145 -167 155 -16 10 -26 21
-23 24 3 3 -8 16 -24 28 -16 12 -27 25 -23 28 3 4 1 7 -5 7 -15 0 -52 37 -52
52 0 6 -2 9 -5 6 -4 -3 -61 49 -129 116 -68 66 -132 127 -142 134 -11 7 -13
10 -5 6 9 -5 12 -3 7 4 -4 7 -14 12 -22 12 -8 0 -13 3 -11 8 2 4 -8 18 -21 32
-14 14 -21 18 -17 10 4 -8 -3 -4 -17 10 -13 14 -23 28 -21 33 2 4 0 7 -5 7 -9
0 -152 137 -464 445 -92 91 -173 165 -180 165 -6 0 -8 3 -5 6 4 4 -9 19 -28
34 -19 15 -33 29 -31 31 2 2 -11 15 -30 29 -18 14 -36 33 -40 43 -3 10 -8 17
-10 14 -3 -2 -65 56 -140 129 -74 74 -140 134 -145 134 -6 0 -7 5 -4 10 3 5 0
10 -7 10 -7 1 -26 19 -43 40 -16 21 -33 39 -37 40 -3 0 -65 59 -137 130 -72
72 -135 130 -140 130 -5 0 -13 9 -16 20 -3 11 -13 20 -21 20 -8 0 -14 8 -14
17 0 9 -3 14 -6 11 -6 -7 -54 39 -54 52 0 6 -4 10 -9 10 -5 0 -63 54 -129 120
-66 66 -125 120 -131 120 -7 0 -9 5 -6 10 3 6 -1 10 -9 10 -9 0 -16 6 -16 13
0 6 -13 21 -29 32 -17 11 -28 21 -26 23 2 2 -13 19 -34 37 -20 18 -96 92 -169
164 -72 72 -132 127 -132 123 0 -4 -8 5 -18 21 -10 15 -22 24 -25 20 -4 -3 -7
1 -7 9 0 9 -4 18 -10 20 -5 2 -74 67 -154 145 -79 78 -147 139 -150 136 -3 -4
-6 -2 -6 4 0 5 -27 37 -60 70 -33 33 -60 59 -60 58 0 0 -77 75 -171 167 -94
92 -176 168 -181 168 -5 0 -6 5 -3 10 3 6 -2 10 -11 10 -10 0 -15 3 -12 6 3 3
-17 26 -44 52 -28 26 -95 91 -149 145 -54 53 -103 97 -109 97 -5 0 -9 3 -8 8
1 4 -43 51 -97 104 -55 53 -160 155 -232 226 -73 71 -135 127 -138 124 -3 -3
-5 3 -5 13 0 10 -2 16 -5 14 -2 -3 -92 81 -199 186 -342 334 -587 574 -851
830 -141 138 -327 319 -413 403 -86 84 -274 267 -417 407 -143 139 -317 309
-386 377 -70 67 -245 238 -389 378 -143 140 -343 335 -443 433 -474 463 -639
622 -650 624 -7 2 -37 -11 -67 -28z"/>
<path d="M7403 9564 c-18 -9 -33 -20 -33 -25 0 -5 -5 -9 -10 -9 -6 0 -34 -16
-63 -35 -74 -51 -70 -48 -207 -137 -69 -44 -128 -85 -131 -90 -3 -5 -9 -9 -13
-9 -8 1 -359 -230 -367 -241 -3 -6 -8 -8 -10 -7 -5 4 -62 -33 -71 -46 -4 -5
-8 -6 -8 -1 0 5 -10 0 -22 -11 -13 -10 -48 -35 -78 -55 -158 -101 -235 -153
-238 -160 -2 -4 -10 -8 -17 -8 -8 0 -20 -6 -27 -12 -18 -17 -76 -58 -82 -58
-2 0 -48 -29 -101 -65 -53 -36 -100 -65 -105 -65 -4 0 -10 -3 -12 -8 -1 -4
-31 -25 -65 -47 -35 -22 -63 -44 -63 -48 0 -5 -4 -6 -9 -3 -5 3 -14 -1 -21 -9
-7 -8 -19 -15 -26 -15 -8 0 -14 -4 -14 -8 0 -4 -15 -16 -32 -27 -60 -34 -293
-190 -296 -197 -2 -5 -8 -8 -14 -8 -11 0 -100 -59 -109 -73 -3 -5 -9 -8 -12
-8 -11 1 -67 -34 -67 -41 0 -5 -4 -8 -9 -8 -8 0 -156 -94 -221 -140 -8 -6 -94
-62 -190 -125 -96 -62 -180 -118 -187 -124 -7 -6 -14 -11 -17 -11 -5 0 -165
-104 -181 -117 -5 -5 -36 -24 -67 -43 -32 -19 -58 -38 -58 -41 0 -3 68 -71
151 -150 84 -79 182 -173 220 -209 37 -36 130 -123 205 -195 75 -71 165 -157
199 -190 35 -33 132 -125 216 -205 84 -80 176 -167 205 -195 28 -27 104 -99
168 -160 64 -60 165 -156 224 -213 221 -212 242 -231 243 -224 0 4 4 -3 9 -15
5 -13 16 -23 25 -23 8 0 15 -7 15 -15 0 -8 3 -15 8 -15 4 0 46 -38 95 -84 48
-46 87 -83 87 -82 0 1 47 -44 105 -101 58 -57 110 -103 116 -103 6 0 7 -4 4
-10 -3 -5 -2 -10 3 -10 4 0 51 -42 102 -92 52 -51 91 -88 88 -82 -4 6 38 -34
92 -88 55 -54 102 -98 104 -98 10 0 54 -49 48 -54 -3 -3 -1 -6 5 -6 6 0 45
-34 87 -76 42 -41 76 -73 76 -70 0 3 9 -3 20 -14 11 -11 20 -24 20 -30 0 -5 4
-10 9 -10 5 0 43 -33 85 -74 42 -41 76 -72 76 -70 0 3 7 -1 15 -10 8 -8 15
-19 15 -25 0 -6 4 -11 8 -11 5 0 48 -38 97 -85 48 -47 89 -85 91 -85 2 0 52
-48 111 -107 59 -60 103 -102 99 -95 -4 7 34 -29 85 -80 51 -51 89 -86 85 -78
-4 8 0 6 8 -4 9 -11 16 -24 16 -30 0 -5 2 -7 5 -4 5 4 69 -56 314 -294 52 -50
91 -85 86 -77 -5 8 5 1 21 -16 16 -16 28 -33 26 -37 -2 -5 1 -8 7 -8 6 0 35
-25 65 -55 30 -30 59 -55 65 -55 5 0 13 -5 17 -12 5 -7 2 -8 -7 -3 -8 4 2 -6
21 -23 19 -16 67 -61 107 -100 40 -38 74 -67 77 -64 4 3 6 -2 6 -11 0 -10 3
-16 8 -15 4 2 44 -34 89 -79 45 -46 86 -83 93 -83 6 0 9 -4 6 -8 -2 -4 9 -17
25 -27 16 -11 29 -26 29 -32 0 -7 4 -13 9 -13 5 0 46 -37 92 -82 46 -46 77
-74 69 -63 -8 11 35 -31 97 -93 61 -61 113 -112 116 -112 2 0 43 -38 90 -85
47 -47 90 -85 96 -85 6 0 11 -6 11 -14 0 -8 5 -18 12 -22 7 -5 8 -2 3 7 -4 8
3 3 17 -11 13 -14 23 -28 21 -32 -2 -5 0 -8 5 -8 5 0 39 -29 77 -65 37 -36 71
-65 77 -65 5 0 6 -4 3 -10 -3 -5 -2 -10 3 -10 5 0 47 -37 94 -82 47 -46 106
-102 132 -125 25 -24 43 -43 39 -43 -4 0 3 -7 15 -16 22 -15 53 -44 265 -247
56 -53 105 -97 109 -97 4 0 8 -8 8 -17 0 -9 3 -14 6 -11 3 4 36 -24 73 -60 38
-37 123 -119 190 -182 67 -63 164 -155 215 -205 52 -49 149 -142 216 -205 67
-63 162 -154 211 -202 48 -49 91 -88 93 -88 3 0 48 -42 100 -93 125 -122 296
-284 321 -303 11 -8 14 -12 6 -8 -9 5 -12 3 -7 -4 4 -7 12 -12 17 -12 6 0 29
-20 52 -45 l43 -45 3627 0 3627 0 0 325 c0 323 0 324 -22 336 -12 6 -27 16
-32 21 -6 5 -20 16 -31 24 -11 9 -14 12 -6 8 9 -5 12 -3 7 5 -4 6 -11 9 -15 7
-4 -3 -21 7 -37 22 -16 15 -32 27 -35 27 -5 0 -25 16 -59 47 -10 9 -21 14 -24
11 -3 -3 -8 2 -12 11 -3 9 -12 16 -19 16 -8 0 -22 11 -33 25 -11 13 -21 22
-24 20 -2 -3 -21 11 -41 30 -20 19 -37 32 -37 29 0 -3 -6 1 -14 8 -7 7 -24 20
-37 28 -12 8 -33 25 -46 37 -13 12 -23 19 -23 16 0 -3 -9 4 -20 17 -11 13 -20
20 -20 16 0 -8 -19 7 -62 49 -17 17 -28 23 -23 15 4 -8 -1 -6 -12 5 -30 30
-62 55 -70 55 -3 0 -13 7 -22 15 -52 47 -61 54 -61 50 0 -6 -7 -1 -52 37 -14
13 -36 30 -48 38 -21 14 -33 24 -79 63 -12 9 -24 17 -27 17 -6 0 -24 15 -59
48 -14 12 -28 23 -32 25 -5 1 -7 6 -5 10 1 5 -2 6 -7 3 -5 -4 -21 4 -35 16
-44 41 -66 58 -74 58 -4 0 -14 9 -22 19 -7 11 -17 18 -22 15 -4 -3 -11 2 -14
10 -3 9 -10 16 -15 16 -10 0 -26 11 -65 47 -13 12 -24 20 -24 18 0 -7 -39 25
-74 60 -16 17 -26 23 -22 15 4 -8 -2 -4 -13 9 -12 13 -21 20 -21 16 0 -3 -6 0
-14 7 -7 7 -23 20 -36 28 -67 46 -118 88 -113 94 4 3 -1 6 -10 6 -10 0 -17 5
-17 10 0 6 -7 10 -16 10 -8 0 -12 5 -9 10 3 5 0 10 -7 10 -7 0 -26 11 -43 25
-16 13 -34 28 -40 33 -5 4 -24 16 -42 27 -18 10 -30 22 -27 27 3 4 -1 8 -8 8
-12 0 -48 26 -95 70 -13 11 -23 18 -23 14 0 -4 -8 3 -19 14 -10 12 -23 22 -29
22 -6 0 -18 10 -27 23 -8 12 -18 20 -21 18 -3 -1 -17 6 -30 18 -13 12 -27 21
-30 21 -4 0 -18 12 -32 28 -13 15 -21 20 -17 12 4 -9 1 -9 -8 3 -8 9 -19 17
-25 17 -5 0 -23 15 -38 33 -15 17 -29 30 -31 28 -3 -1 -16 6 -29 18 -13 12
-26 21 -29 21 -3 0 -14 8 -24 17 -25 23 -38 33 -81 63 -19 13 -46 36 -59 50
-13 14 -20 18 -16 10 3 -8 -3 -4 -14 9 -12 13 -21 20 -21 16 0 -5 -9 2 -20 15
-11 13 -20 19 -20 15 0 -4 -12 5 -26 21 -15 16 -23 22 -19 14 8 -14 -51 34
-67 55 -4 6 -8 6 -8 1 0 -5 -12 4 -26 20 -15 16 -23 22 -19 14 5 -8 -1 -6 -12
5 -27 26 -57 50 -63 51 -6 0 -44 30 -72 57 -10 9 -18 14 -18 10 0 -3 -8 4 -19
15 -10 12 -23 22 -29 22 -5 0 -13 7 -16 16 -3 8 -10 13 -14 10 -5 -3 -15 4
-22 15 -8 10 -18 19 -22 19 -7 0 -36 21 -63 48 -8 6 -18 12 -24 12 -6 0 -16 9
-23 20 -7 11 -17 20 -23 20 -6 0 -17 9 -25 19 -7 11 -17 18 -20 16 -4 -2 -21
9 -38 25 -18 16 -32 27 -32 24 0 -4 -13 6 -65 54 -17 15 -34 28 -38 29 -12 4
-81 57 -94 73 -7 8 -13 11 -13 6 0 -5 -9 1 -20 14 -11 13 -20 19 -20 14 0 -5
-11 4 -25 20 -14 16 -25 25 -25 21 0 -4 -9 2 -20 15 -11 13 -20 20 -20 17 0
-6 -35 20 -66 51 -8 7 -14 10 -14 6 0 -4 -9 3 -20 16 -11 13 -20 19 -20 15 0
-4 -12 5 -26 21 -15 16 -23 22 -19 14 3 -8 -3 -4 -14 9 -12 13 -21 20 -21 17
0 -3 -8 2 -18 12 -31 28 -67 57 -73 57 -3 0 -12 7 -21 15 -9 8 -26 22 -38 30
-12 8 -30 22 -40 30 -10 8 -31 24 -46 35 -16 11 -39 31 -53 45 -13 14 -21 19
-16 11 5 -8 -8 -2 -28 13 -20 16 -37 33 -37 39 0 6 -3 8 -6 4 -6 -6 -24 6 -52
36 -9 9 -21 17 -27 17 -6 0 -17 9 -25 20 -8 11 -20 20 -27 20 -7 0 -13 4 -13
8 0 4 -12 15 -27 24 -16 10 -41 28 -58 42 -16 14 -35 30 -42 36 -7 5 -15 10
-18 10 -4 0 -15 9 -66 55 -9 8 -19 15 -24 15 -4 0 -16 10 -26 22 -11 11 -19
18 -19 14 0 -4 -12 5 -27 19 -15 14 -31 25 -35 25 -4 0 -18 11 -32 25 -14 14
-28 25 -31 25 -7 0 -27 16 -66 52 -16 14 -29 24 -29 21 0 -7 -94 69 -98 79 -2
5 -8 8 -14 8 -5 0 -16 6 -23 13 -32 28 -45 37 -52 37 -5 0 -16 8 -25 18 -8 9
-28 26 -42 37 -15 11 -36 28 -47 37 -10 10 -21 18 -24 18 -5 0 -39 26 -67 53
-10 9 -18 15 -18 12 0 -6 -16 6 -51 37 -10 10 -23 18 -29 18 -5 0 -10 5 -10
10 0 6 -7 10 -15 10 -8 0 -15 7 -15 17 0 9 -3 13 -6 10 -4 -4 -19 4 -34 16
-14 12 -41 33 -60 47 -18 14 -39 31 -46 38 -7 6 -15 12 -18 12 -6 0 -37 24
-62 48 -8 7 -14 11 -14 7 0 -3 -11 6 -25 21 -14 15 -25 24 -25 21 0 -6 -35 21
-66 51 -8 7 -14 11 -14 7 0 -3 -11 4 -25 17 -40 38 -55 49 -55 42 0 -4 -11 5
-25 20 -14 15 -25 23 -25 19 0 -4 -7 1 -15 11 -8 11 -15 17 -15 13 0 -4 -8 1
-18 11 -22 20 -35 30 -117 92 -33 25 -61 48 -63 53 -2 4 -10 7 -17 7 -7 0 -16
7 -19 16 -4 9 -9 14 -12 11 -3 -3 -17 5 -31 19 -13 13 -27 24 -31 24 -4 0 -21
13 -38 30 -18 16 -34 26 -38 23 -3 -3 -8 2 -12 11 -3 9 -10 16 -16 16 -5 0
-20 10 -33 23 -31 29 -40 36 -99 77 -28 19 -57 42 -66 50 -10 8 -30 24 -45 35
-16 11 -34 26 -42 33 -7 7 -13 10 -13 6 0 -4 -6 -1 -12 7 -18 21 -108 92 -108
85 0 -3 -8 2 -18 12 -10 9 -33 28 -51 42 -18 14 -39 31 -47 38 -8 7 -14 10
-14 6 0 -4 -8 3 -19 14 -10 12 -23 22 -29 22 -6 0 -15 6 -19 13 -4 7 -33 30
-63 52 -30 22 -57 42 -60 45 -3 3 -21 17 -40 30 -19 13 -42 32 -51 42 -9 10
-21 18 -28 18 -6 0 -11 5 -11 11 0 5 -4 8 -9 4 -6 -3 -15 4 -21 16 -7 11 -14
19 -16 16 -3 -3 -17 5 -31 18 -49 44 -63 55 -63 49 0 -3 -11 7 -24 21 -14 15
-26 25 -28 23 -2 -2 -24 13 -48 33 -25 20 -53 39 -62 42 -10 4 -18 11 -18 17
0 5 -7 10 -15 10 -8 0 -15 4 -15 9 0 9 -106 91 -118 91 -4 0 -15 8 -23 18 -25
27 -68 62 -78 62 -5 0 -11 3 -13 8 -5 11 -85 72 -95 72 -5 0 -14 9 -21 21 -7
12 -16 19 -19 16 -3 -3 -15 3 -27 14 -41 39 -164 129 -175 129 -6 0 -11 6 -11
14 0 8 -9 18 -20 21 -12 4 -30 16 -40 28 -11 11 -20 18 -20 14 0 -4 -8 1 -18
11 -25 23 -85 70 -94 72 -4 1 -24 17 -44 36 -21 19 -43 34 -49 34 -5 0 -18 11
-28 24 -10 13 -29 27 -43 30 -13 4 -24 13 -24 21 0 8 -6 15 -13 15 -8 0 -24
11 -37 25 -12 13 -27 22 -31 19 -5 -3 -9 -1 -9 5 0 5 -9 13 -20 16 -11 4 -18
11 -15 16 4 5 0 9 -7 9 -7 0 -28 14 -45 31 -18 16 -33 26 -33 22 0 -4 -4 -3
-8 2 -10 14 -142 117 -142 111 0 -3 -13 7 -29 22 -16 15 -60 50 -98 77 -37 28
-69 53 -71 58 -2 4 -8 7 -13 7 -5 0 -25 16 -46 35 -20 19 -40 32 -44 30 -4 -3
-9 -2 -11 2 -3 8 -43 42 -98 83 -18 14 -39 31 -46 38 -7 6 -17 12 -23 12 -6 0
-11 4 -11 8 0 5 -16 17 -35 28 -19 10 -35 24 -35 31 0 7 -6 13 -12 13 -7 0
-25 10 -40 23 -14 12 -36 29 -48 37 -13 8 -31 24 -41 34 -11 11 -19 16 -19 11
0 -4 -8 2 -19 13 -10 12 -23 22 -29 22 -5 0 -13 7 -16 16 -4 9 -9 14 -12 11
-3 -3 -14 2 -23 11 -38 36 -72 62 -81 62 -6 0 -10 5 -10 10 0 6 -6 10 -14 10
-8 0 -16 3 -18 8 -2 4 -18 21 -37 37 -19 17 -31 23 -26 15 4 -8 -4 -1 -19 15
-14 17 -25 26 -26 22 0 -4 -11 2 -24 15 -14 13 -46 39 -73 58 -26 19 -50 37
-53 40 -20 20 -91 70 -100 70 -6 0 -8 5 -5 10 6 9 -8 14 -27 11 -5 0 -8 5 -8
11 -1 7 -22 26 -48 42 -26 17 -51 36 -55 43 -4 7 -12 13 -18 13 -5 0 -20 9
-32 21 -12 11 -49 40 -82 64 -33 25 -67 51 -75 58 -8 8 -31 25 -50 38 -19 13
-39 30 -43 37 -4 6 -14 12 -22 12 -7 0 -15 3 -17 8 -5 12 -216 172 -227 172
-5 0 -11 7 -15 15 -3 8 -10 15 -16 15 -5 0 -18 8 -28 18 -32 29 -62 52 -70 52
-4 0 -13 9 -20 20 -7 11 -17 20 -23 20 -10 0 -15 3 -60 44 -15 13 -43 33 -63
45 -20 13 -36 28 -36 33 0 6 -3 9 -6 5 -4 -3 -12 -1 -19 6 -32 31 -66 57 -74
57 -5 0 -11 4 -13 8 -1 4 -39 35 -83 67 -44 33 -85 64 -91 70 -34 30 -55 45
-64 45 -6 0 -10 5 -10 10 0 6 -6 10 -14 10 -8 0 -17 7 -20 16 -3 8 -10 12 -16
9 -5 -3 -10 1 -10 10 0 9 -4 14 -9 11 -5 -3 -12 1 -15 10 -3 8 -10 13 -15 10
-5 -3 -11 1 -15 9 -7 19 -13 19 -53 -1z"/>
<path d="M13444 9552 c-17 -15 -46 -38 -64 -52 -32 -24 -49 -39 -100 -83 -14
-12 -28 -22 -32 -22 -3 0 -16 -11 -28 -25 -12 -14 -25 -25 -30 -25 -4 0 -20
-13 -34 -28 -14 -15 -26 -25 -26 -22 0 4 -6 0 -13 -7 -8 -7 -31 -26 -52 -43
-22 -16 -50 -40 -63 -52 -12 -13 -26 -23 -29 -23 -3 0 -14 -10 -24 -22 -11
-11 -19 -18 -19 -15 0 6 -44 -30 -97 -80 -12 -12 -23 -19 -23 -16 0 4 -9 -2
-19 -13 -10 -10 -34 -30 -52 -44 -19 -14 -44 -35 -57 -47 -13 -13 -26 -23 -30
-23 -4 0 -24 -16 -46 -35 -21 -19 -42 -35 -48 -35 -5 0 -6 -4 -3 -10 3 -5 1
-10 -6 -10 -11 0 -116 -83 -131 -105 -4 -5 -8 -7 -8 -3 0 6 -51 -35 -96 -78
-13 -12 -25 -20 -28 -17 -2 3 -12 -7 -21 -21 -10 -14 -22 -26 -29 -26 -6 0
-28 -16 -48 -36 -21 -19 -38 -32 -38 -27 0 4 -7 -3 -16 -15 -8 -12 -20 -20
-25 -17 -5 4 -9 -1 -9 -10 0 -8 -8 -19 -17 -22 -18 -7 -51 -33 -89 -69 -13
-12 -25 -19 -28 -16 -3 3 -6 0 -6 -6 0 -7 -5 -12 -11 -12 -7 0 -26 -13 -43
-29 -67 -64 -86 -80 -86 -73 0 4 -4 2 -8 -4 -4 -6 -28 -27 -54 -46 -26 -20
-44 -39 -41 -42 4 -3 0 -6 -8 -6 -8 0 -33 -17 -57 -39 -23 -21 -42 -37 -42
-35 0 4 -31 -20 -59 -46 -9 -8 -39 -33 -66 -54 -28 -22 -56 -46 -62 -55 -7 -8
-13 -12 -13 -9 0 6 -45 -30 -87 -69 -13 -13 -28 -23 -33 -23 -5 0 -17 -11 -26
-25 -9 -14 -21 -25 -28 -25 -6 0 -27 -15 -47 -33 -75 -65 -99 -85 -99 -80 0 3
-13 -8 -30 -25 -16 -18 -30 -30 -30 -27 0 5 -24 -14 -76 -60 -12 -11 -35 -29
-50 -40 -50 -37 -89 -75 -77 -75 6 0 18 -6 25 -12 7 -7 35 -29 61 -48 27 -19
56 -43 65 -52 9 -10 21 -18 27 -18 6 0 26 -15 45 -32 18 -18 30 -26 25 -18 -5
8 6 0 24 -17 18 -18 36 -33 41 -33 4 0 22 -13 40 -30 18 -16 36 -30 40 -30 5
0 16 -8 26 -17 10 -10 20 -18 24 -18 4 0 14 -7 23 -15 35 -32 47 -40 57 -40 6
0 8 -4 5 -10 -3 -5 1 -10 9 -10 9 0 16 -5 16 -12 0 -6 3 -9 6 -5 3 3 19 -7 36
-21 17 -15 34 -26 39 -25 5 2 9 -1 9 -5 0 -5 21 -24 48 -42 26 -19 51 -40 55
-47 4 -7 15 -13 22 -13 8 0 15 -4 15 -10 0 -5 7 -10 15 -10 8 0 15 -3 15 -7 0
-5 17 -19 38 -33 20 -14 45 -33 55 -44 9 -10 17 -15 17 -10 0 5 4 4 8 -2 4 -5
25 -23 47 -39 22 -17 43 -34 47 -40 4 -5 8 -7 8 -3 0 4 17 -8 37 -27 20 -19
41 -32 45 -29 4 3 8 0 8 -6 0 -6 8 -14 17 -17 16 -6 48 -31 79 -61 8 -7 14
-11 14 -8 0 3 8 -1 18 -9 69 -58 172 -134 172 -129 0 4 8 -3 19 -14 10 -12 23
-22 29 -22 6 0 12 -4 14 -8 2 -5 30 -28 63 -52 33 -24 62 -47 63 -52 2 -4 8
-6 13 -2 5 3 12 -2 15 -10 3 -9 11 -16 18 -16 6 0 19 -8 27 -17 9 -10 26 -25
38 -33 13 -8 31 -22 42 -30 10 -8 40 -31 66 -50 27 -19 57 -43 67 -52 11 -10
23 -18 28 -18 4 0 17 -8 28 -17 10 -10 30 -28 44 -40 13 -12 27 -19 30 -16 3
4 6 1 6 -5 0 -7 7 -12 15 -12 7 0 18 -6 22 -12 11 -17 89 -78 100 -78 5 0 15
-9 23 -19 7 -11 17 -18 21 -16 4 3 9 -2 13 -10 3 -8 11 -15 17 -15 6 0 19 -8
28 -18 9 -9 36 -31 61 -47 25 -17 54 -38 65 -48 11 -10 35 -27 53 -38 17 -12
32 -25 32 -30 0 -6 5 -7 10 -4 6 3 10 2 10 -3 0 -5 15 -17 34 -27 19 -11 33
-23 30 -27 -3 -4 2 -8 10 -8 9 0 16 -5 16 -12 0 -6 3 -9 6 -5 3 3 20 -7 38
-23 17 -17 34 -30 38 -30 4 0 19 -12 34 -27 15 -16 23 -21 19 -13 -5 9 2 6 16
-6 13 -11 32 -27 42 -35 10 -8 24 -20 32 -26 7 -7 18 -13 24 -13 5 0 15 -8 20
-17 6 -10 11 -15 11 -11 0 4 15 -6 32 -23 18 -16 38 -29 46 -29 7 0 10 -4 7
-10 -3 -5 1 -10 9 -10 9 0 16 -5 16 -12 0 -6 3 -8 7 -5 3 4 16 -4 28 -18 13
-13 26 -21 29 -18 3 3 8 -2 12 -11 3 -9 12 -16 20 -16 8 0 14 -4 14 -10 0 -5
7 -10 16 -10 8 0 12 -4 9 -10 -3 -5 1 -10 9 -10 9 0 16 -4 16 -10 0 -5 6 -10
13 -10 6 0 26 -13 43 -30 18 -16 35 -26 38 -23 3 4 6 1 6 -5 0 -6 9 -14 20
-17 11 -4 18 -11 15 -16 -4 -5 1 -9 9 -9 9 0 16 -5 16 -12 0 -6 3 -9 6 -5 5 5
33 -16 70 -51 8 -7 14 -10 14 -5 0 4 5 0 11 -10 6 -9 14 -15 20 -12 5 4 9 -1
9 -10 0 -9 4 -13 10 -10 5 3 17 -3 27 -15 10 -11 24 -20 32 -20 8 0 11 -3 8
-6 -4 -4 15 -20 41 -37 26 -16 54 -38 63 -48 9 -10 19 -16 23 -12 3 3 6 1 6
-5 0 -7 7 -12 16 -12 8 0 12 -4 9 -10 -3 -5 1 -10 9 -10 8 0 19 -7 24 -16 5
-9 13 -16 18 -16 9 0 64 -40 96 -70 10 -10 18 -15 18 -10 0 4 4 2 8 -3 4 -6
23 -22 42 -35 19 -13 40 -31 47 -40 7 -8 13 -12 13 -8 0 8 28 -13 67 -49 13
-12 23 -19 23 -15 1 4 9 -2 18 -13 10 -11 24 -21 32 -23 8 -2 23 -12 33 -24 9
-11 17 -17 17 -13 0 5 11 -4 24 -18 13 -14 27 -23 30 -20 3 4 6 1 6 -5 0 -7 7
-12 16 -12 8 0 12 -5 9 -10 -3 -5 0 -10 8 -10 8 0 28 -13 45 -29 16 -16 32
-28 34 -25 2 2 19 -10 36 -26 18 -16 32 -26 32 -23 0 3 8 -4 19 -15 10 -12 23
-22 30 -22 6 0 11 -4 11 -10 0 -5 7 -10 15 -10 8 0 15 -3 15 -7 0 -5 17 -19
38 -33 47 -32 59 -41 82 -64 11 -11 20 -16 20 -10 0 5 5 1 11 -8 5 -10 16 -18
22 -18 7 0 19 -9 27 -20 8 -11 20 -20 27 -20 7 0 13 -3 13 -8 0 -4 18 -18 40
-32 22 -14 40 -28 40 -32 0 -5 6 -8 14 -8 8 0 16 -3 18 -7 2 -5 30 -28 63 -52
33 -25 66 -52 73 -60 6 -8 12 -11 12 -6 0 4 8 -2 19 -13 10 -12 23 -22 29 -22
5 0 13 -7 16 -16 3 -8 10 -13 15 -9 6 3 14 -3 20 -12 6 -10 11 -14 11 -9 0 5
11 -4 25 -20 14 -16 25 -24 25 -19 0 7 3 7 8 0 4 -6 25 -23 47 -40 22 -16 43
-34 47 -39 4 -6 8 -7 8 -3 0 8 21 -7 48 -35 9 -10 21 -18 26 -18 5 0 17 -10
27 -22 11 -11 19 -17 19 -13 0 4 9 -2 20 -15 11 -13 20 -19 20 -15 0 4 9 -2
20 -15 11 -13 20 -19 20 -15 0 4 9 -2 20 -15 11 -13 20 -19 20 -15 0 4 12 -5
26 -21 15 -16 23 -22 19 -14 -3 8 6 2 20 -15 15 -16 24 -23 20 -15 -3 8 1 6 9
-4 9 -11 16 -16 16 -12 0 4 7 1 15 -6 8 -7 26 -22 41 -33 14 -11 37 -31 51
-45 14 -14 22 -18 17 -10 -7 13 9 1 67 -52 10 -10 19 -15 19 -10 1 4 10 -4 20
-17 11 -13 20 -20 20 -16 0 3 7 0 15 -7 29 -27 44 -38 50 -38 3 0 14 -8 24
-18 36 -32 56 -47 56 -42 0 5 39 -26 74 -60 14 -13 28 -23 29 -21 2 2 15 -6
28 -18 13 -12 29 -21 34 -21 6 0 13 -7 16 -15 4 -8 10 -15 15 -15 10 0 25 -11
63 -47 13 -12 26 -20 29 -17 3 3 22 -12 43 -33 21 -21 34 -32 30 -24 -5 8 5 3
23 -10 31 -23 42 -37 19 -23 -8 4 -10 3 -5 -2 5 -5 13 -9 17 -9 13 0 49 -25
82 -57 16 -15 31 -27 34 -27 3 1 17 -8 30 -20 13 -12 28 -21 32 -21 4 0 14 -9
22 -20 8 -11 20 -20 27 -20 6 0 17 -8 22 -18 6 -9 11 -13 11 -8 0 5 9 -1 20
-14 11 -13 20 -20 20 -16 0 7 16 -5 56 -41 13 -12 24 -20 24 -17 0 3 7 -1 15
-8 32 -29 45 -38 52 -38 5 0 15 -9 23 -20 8 -11 18 -20 23 -20 5 0 21 -10 36
-23 15 -12 42 -33 61 -47 18 -14 39 -31 47 -38 7 -7 13 -10 13 -7 0 4 15 -6
34 -21 56 -49 71 -59 80 -61 5 -1 12 -5 15 -10 3 -5 27 -24 54 -43 26 -18 47
-37 47 -42 0 -5 5 -6 10 -3 6 3 10 1 10 -4 0 -6 7 -11 15 -11 7 0 18 -6 22
-13 4 -6 35 -32 68 -56 33 -25 63 -49 67 -55 4 -6 8 -7 8 -2 0 5 11 -3 24 -17
13 -14 26 -24 28 -22 2 3 19 -9 36 -25 18 -16 32 -27 32 -24 0 6 25 -14 48
-38 9 -10 22 -18 29 -18 7 0 13 -4 13 -8 0 -4 12 -15 28 -24 30 -19 76 -54
104 -80 10 -10 20 -18 23 -18 6 1 72 -47 93 -67 7 -7 26 -20 42 -30 17 -9 30
-21 30 -25 0 -4 6 -8 13 -8 7 0 19 -9 27 -19 7 -11 17 -18 22 -15 4 3 11 -2
14 -10 3 -9 10 -16 15 -16 9 0 37 -21 70 -52 9 -9 20 -14 23 -10 3 3 6 1 6 -4
0 -5 18 -20 39 -34 22 -13 37 -28 34 -34 -3 -5 -2 -6 4 -3 5 3 21 -4 34 -16
14 -12 35 -28 47 -35 l22 -12 0 2415 0 2414 -22 12 c-12 6 -31 20 -41 30 -11
10 -24 16 -29 13 -4 -3 -8 0 -8 5 0 6 -7 11 -15 11 -9 0 -18 7 -21 15 -4 8
-10 12 -15 9 -5 -3 -9 0 -9 6 0 6 -4 8 -10 5 -5 -3 -10 -2 -10 3 0 5 -8 13
-17 16 -35 13 -73 37 -73 47 0 6 -4 7 -10 4 -5 -3 -10 -1 -10 4 0 6 -5 11 -12
11 -6 0 -26 11 -44 25 -18 14 -37 25 -43 25 -6 0 -11 5 -11 11 0 5 -4 7 -10 4
-5 -3 -10 -1 -10 4 0 6 -6 11 -14 11 -8 0 -17 7 -20 16 -3 8 -10 13 -14 10 -5
-3 -18 3 -29 14 -12 10 -24 16 -27 13 -3 -4 -6 -1 -6 6 0 7 -4 10 -9 7 -5 -3
-12 1 -15 10 -3 8 -10 12 -16 9 -5 -3 -10 -1 -10 4 0 6 -5 11 -11 11 -6 0 -30
14 -54 30 -24 17 -48 30 -54 30 -6 0 -11 5 -11 10 0 6 -7 10 -15 10 -8 0 -15
5 -15 10 0 6 -7 10 -15 10 -8 0 -15 5 -15 12 0 6 -3 9 -6 5 -4 -3 -12 -1 -20
6 -33 30 -42 35 -48 30 -3 -4 -6 -1 -6 6 0 7 -4 9 -10 6 -5 -3 -10 -1 -10 4 0
6 -6 11 -13 11 -7 0 -22 8 -33 18 -10 9 -36 26 -56 37 -21 11 -38 23 -38 28 0
4 -4 5 -10 2 -5 -3 -10 -2 -10 3 0 5 -18 17 -40 27 -22 10 -40 21 -40 25 0 4
-13 13 -30 20 -16 7 -30 17 -30 22 0 5 -4 7 -9 4 -5 -3 -12 1 -15 10 -4 9 -9
14 -13 11 -3 -4 -12 1 -20 11 -8 9 -12 12 -8 5 6 -13 -89 46 -119 74 -11 10
-15 12 -11 4 9 -15 -52 25 -73 49 -7 8 -11 9 -7 2 4 -7 -15 2 -42 20 -26 18
-50 36 -51 41 -2 4 -7 5 -12 2 -4 -3 -13 2 -20 10 -7 8 -18 15 -25 15 -7 0
-16 7 -19 16 -3 8 -10 12 -16 9 -5 -3 -10 -3 -10 2 0 4 -20 19 -45 32 -25 13
-45 28 -45 33 0 5 -4 6 -10 3 -5 -3 -10 -1 -10 5 0 6 -4 9 -9 6 -5 -3 -12 1
-15 10 -3 8 -10 12 -16 9 -6 -3 -13 1 -16 9 -3 9 -10 14 -14 11 -5 -3 -14 1
-22 8 -7 7 -29 22 -48 33 -19 10 -39 25 -43 32 -5 7 -12 10 -18 7 -5 -4 -9 -1
-9 5 0 6 -5 8 -10 5 -6 -3 -13 1 -16 9 -3 9 -10 13 -15 10 -5 -3 -9 0 -9 6 0
6 -4 9 -9 6 -5 -3 -12 1 -15 10 -3 8 -10 12 -16 9 -5 -3 -10 -1 -10 4 0 6 -7
11 -15 11 -8 0 -15 5 -15 12 0 6 -3 8 -6 5 -4 -4 -15 3 -25 15 -11 11 -19 17
-19 13 0 -4 -9 0 -20 10 -11 10 -20 14 -20 9 0 -5 -5 -1 -11 9 -6 9 -14 15
-20 12 -5 -4 -9 -1 -9 4 0 6 -5 11 -11 11 -7 0 -18 8 -26 18 -10 11 -12 12 -8
2 4 -10 2 -9 -8 3 -8 9 -19 17 -24 17 -5 0 -20 9 -33 20 -13 11 -29 20 -37 20
-8 0 -11 5 -7 12 4 6 3 8 -3 5 -6 -4 -21 2 -35 12 -13 11 -43 29 -66 41 -23
12 -42 26 -42 32 0 5 -4 6 -10 3 -5 -3 -10 -1 -10 4 0 6 -7 11 -15 11 -8 0
-15 5 -15 12 0 6 -3 9 -6 5 -3 -3 -11 -1 -18 4 -48 41 -60 48 -67 43 -5 -3 -9
0 -9 5 0 6 -7 11 -15 11 -8 0 -15 5 -15 10 0 6 -7 10 -15 10 -8 0 -15 3 -15 8
0 4 -18 16 -40 26 -22 11 -40 23 -40 28 0 5 -4 6 -10 3 -5 -3 -10 -1 -10 4 0
6 -7 11 -15 11 -8 0 -15 3 -15 8 0 4 -25 20 -55 37 -30 16 -55 33 -55 38 0 4
-4 5 -10 2 -5 -3 -10 -1 -10 5 0 6 -4 8 -10 5 -5 -3 -10 -1 -10 4 0 6 -7 11
-15 11 -9 0 -18 6 -21 13 -3 8 -20 20 -39 27 -19 8 -35 17 -35 22 0 4 -7 8
-15 8 -8 0 -15 3 -15 8 0 4 -13 13 -28 20 -16 6 -39 22 -52 35 -14 12 -27 21
-30 19 -3 -1 -13 5 -22 13 -10 8 -18 13 -18 10 0 -5 -60 33 -95 60 -10 8 -25
15 -32 15 -7 0 -13 5 -13 10 0 6 -5 10 -11 10 -7 0 -18 8 -26 18 -8 9 -11 11
-7 3 5 -9 -2 -8 -19 5 -15 10 -27 23 -27 27 0 5 -4 6 -9 3 -5 -3 -14 1 -21 9
-7 8 -16 15 -21 15 -4 0 -35 18 -68 40 -33 22 -62 40 -65 40 -3 0 -15 8 -26
18 -11 9 -23 15 -27 14 -3 -2 -9 0 -12 5 -8 12 -251 163 -262 163 -5 0 -9 5
-9 10 0 6 -7 10 -15 10 -8 0 -15 5 -15 10 0 6 -5 10 -11 10 -5 0 -37 18 -70
40 -32 23 -59 38 -59 35 0 -3 -10 3 -22 14 -11 11 -25 18 -30 15 -4 -3 -8 -1
-8 3 0 10 -62 49 -72 45 -5 -1 -8 3 -8 8 0 6 -6 10 -14 10 -8 0 -17 7 -20 16
-3 8 -10 12 -16 9 -5 -3 -10 -1 -10 5 0 6 -4 8 -10 5 -5 -3 -10 -1 -10 4 0 6
-7 11 -15 11 -8 0 -15 5 -15 10 0 6 -7 10 -15 10 -8 0 -15 5 -15 10 0 6 -4 10
-9 10 -6 0 -30 14 -54 30 -25 17 -50 30 -56 30 -6 0 -11 5 -11 11 0 5 -4 8 -9
5 -5 -3 -12 1 -15 10 -3 8 -10 13 -15 10 -5 -4 -11 -3 -13 1 -4 11 -86 63 -98
63 -5 0 -10 5 -10 10 0 6 -7 10 -15 10 -7 0 -19 8 -24 18 -6 9 -11 13 -11 8 0
-5 -9 -1 -20 9 -11 10 -20 15 -20 11 0 -4 -10 2 -22 14 -12 11 -28 20 -35 20
-7 0 -13 5 -13 11 0 5 -4 8 -9 5 -5 -3 -11 1 -15 9 -3 8 -10 15 -16 15 -6 0
-31 14 -55 30 -24 17 -48 30 -54 30 -6 0 -11 4 -11 9 0 5 -13 14 -30 21 -16 7
-30 17 -30 22 0 5 -4 6 -10 3 -5 -3 -10 -2 -10 3 0 6 -13 15 -30 21 -16 5 -30
15 -30 20 0 6 -9 11 -19 11 -11 0 -21 3 -23 8 -4 10 -92 67 -100 65 -3 -2 -12
4 -18 12 -7 8 -18 15 -25 15 -7 0 -15 7 -19 15 -3 8 -9 14 -13 13 -4 -1 -27
10 -50 25 -24 15 -47 27 -53 27 -6 0 -8 5 -5 10 3 6 1 10 -6 10 -6 0 -40 18
-75 40 -35 22 -65 40 -66 40 -2 0 -17 -13 -34 -28z"/>
<path d="M19153 9193 c-18 -19 -33 -37 -33 -40 0 -3 -35 -40 -78 -83 -44 -42
-82 -85 -85 -94 -4 -9 -17 -21 -29 -26 -13 -5 -20 -9 -15 -9 4 -1 -19 -27 -50
-59 -32 -33 -75 -78 -95 -100 -21 -23 -42 -42 -48 -42 -5 0 -9 -3 -8 -8 2 -4
-18 -29 -44 -56 -27 -27 -48 -53 -48 -58 0 -5 -4 -7 -9 -4 -4 3 -13 -6 -20
-20 -6 -14 -16 -22 -21 -19 -6 4 -9 3 -8 -2 2 -4 -22 -33 -52 -65 -107 -110
-225 -238 -228 -248 -2 -6 -8 -8 -13 -4 -5 3 -9 1 -9 -5 0 -16 -46 -61 -54
-53 -4 4 -6 2 -5 -3 4 -10 -39 -57 -182 -204 -41 -42 -78 -85 -82 -94 -3 -9
-13 -17 -22 -17 -8 0 -14 -6 -13 -12 2 -7 -3 -12 -10 -10 -6 1 -11 -1 -10 -6
2 -4 -21 -31 -49 -59 -29 -29 -53 -55 -53 -59 0 -3 -46 -51 -102 -107 -57 -56
-96 -97 -88 -93 8 5 2 -5 -15 -22 -16 -16 -33 -28 -37 -25 -5 2 -8 -2 -8 -9 0
-8 -9 -20 -20 -28 -18 -13 -18 -15 -3 -32 8 -10 20 -15 24 -12 5 3 9 0 9 -5 0
-6 7 -11 15 -11 8 0 15 -4 15 -10 0 -5 7 -10 15 -10 8 0 15 -5 15 -11 0 -5 5
-7 10 -4 6 3 10 1 10 -4 0 -6 7 -11 15 -11 9 0 18 -7 21 -15 4 -8 10 -13 14
-10 5 3 14 0 22 -7 7 -7 25 -19 41 -27 15 -8 27 -18 27 -23 0 -5 5 -6 10 -3 6
3 10 1 10 -5 0 -6 5 -8 10 -5 6 3 10 2 10 -4 0 -5 10 -13 22 -17 12 -3 28 -13
36 -20 7 -8 20 -14 28 -14 8 0 12 -4 9 -10 -3 -5 3 -10 14 -10 12 0 21 -4 21
-8 0 -5 18 -17 40 -27 22 -10 40 -22 40 -27 0 -5 5 -6 10 -3 6 3 10 1 10 -4 0
-6 7 -11 15 -11 8 0 15 -3 15 -7 0 -5 25 -21 55 -38 30 -16 55 -33 55 -37 0
-4 3 -7 8 -6 4 1 26 -10 49 -25 24 -15 47 -27 53 -27 5 0 10 -4 10 -9 0 -5 14
-14 30 -21 17 -7 30 -17 30 -22 0 -5 5 -6 10 -3 6 3 10 1 10 -5 0 -6 5 -8 10
-5 6 3 10 1 10 -4 0 -6 7 -11 15 -11 8 0 15 -4 15 -10 0 -5 6 -10 13 -10 8 0
22 -9 32 -20 10 -11 22 -17 26 -14 5 3 9 0 9 -6 0 -6 5 -8 10 -5 6 3 10 1 10
-4 0 -6 7 -11 15 -11 8 0 15 -4 15 -9 0 -5 14 -14 30 -21 17 -7 30 -17 30 -22
0 -5 4 -7 9 -4 7 5 19 -2 67 -43 7 -5 14 -8 17 -5 2 2 10 -2 17 -11 7 -8 19
-15 26 -15 8 0 14 -5 14 -11 0 -5 5 -7 10 -4 6 3 10 1 10 -4 0 -6 6 -11 14
-11 8 0 17 -7 20 -16 3 -8 10 -12 16 -9 5 3 10 1 10 -5 0 -6 4 -9 8 -6 5 3 19
-4 30 -15 12 -11 22 -17 22 -13 0 4 8 -2 18 -12 9 -10 22 -19 27 -19 12 0 99
-57 103 -68 2 -4 8 -5 13 -1 5 3 9 0 9 -5 0 -6 6 -11 14 -11 7 0 19 -7 26 -15
7 -8 16 -12 21 -9 5 3 9 1 9 -4 0 -5 8 -12 18 -16 9 -3 23 -9 30 -12 9 -4 12
282 12 1415 0 782 -3 1421 -7 1420 -5 0 -23 -16 -40 -36z"/>
<path d="M17749 8213 c-13 -16 -12 -17 4 -4 9 7 17 15 17 17 0 8 -8 3 -21 -13z"/>
<path d="M17519 7973 c-13 -16 -12 -17 4 -4 9 7 17 15 17 17 0 8 -8 3 -21 -13z"/>
<path d="M1 1643 l-1 -1643 1205 0 1205 0 -46 63 c-25 34 -50 64 -55 65 -5 2
-7 7 -5 11 3 4 -13 27 -35 51 -21 25 -39 50 -39 55 0 6 -9 17 -20 25 -11 8
-20 20 -20 26 0 6 -15 26 -32 45 -18 19 -32 36 -31 39 1 3 -6 14 -15 25 -10
11 -37 48 -61 83 -24 34 -48 62 -52 62 -5 0 -9 6 -9 13 0 7 -9 23 -20 35 -11
12 -20 25 -20 29 0 4 -14 22 -30 40 -17 18 -30 37 -30 42 0 6 -4 11 -10 11 -5
0 -10 6 -10 14 0 8 -3 16 -8 18 -4 2 -41 48 -81 103 -41 55 -79 103 -84 106
-5 3 -8 9 -7 13 1 4 -10 21 -24 39 -14 18 -47 61 -73 97 -26 36 -51 70 -56 75
-4 6 -35 48 -69 95 -34 47 -67 88 -73 92 -6 5 -6 8 0 8 6 0 6 3 -1 8 -10 7
-61 73 -94 122 -8 12 -22 30 -30 40 -8 10 -22 28 -30 40 -17 25 -64 89 -80
107 -5 7 -10 17 -10 23 0 6 -5 8 -10 5 -6 -3 -10 -1 -10 5 0 15 -92 140 -103
140 -5 0 -6 4 -3 8 3 5 -8 23 -24 41 -17 18 -30 35 -30 39 0 4 -13 22 -30 40
-16 18 -30 36 -31 40 -4 13 -202 277 -211 280 -4 2 -8 8 -8 13 0 8 -65 101
-95 136 -5 6 -28 36 -50 67 -22 31 -43 56 -48 56 -4 0 -6 4 -3 8 3 5 -6 20
-20 35 -13 14 -24 29 -24 31 0 3 -7 14 -15 23 -8 10 -57 77 -110 148 -53 72
-102 138 -110 147 -7 9 -18 25 -24 36 -6 11 -17 26 -23 34 -7 7 -26 32 -42 56
-16 23 -33 42 -38 42 -5 0 -7 4 -4 9 4 5 3 11 -1 13 -10 4 -66 77 -75 98 -4 8
-7 -724 -7 -1627z"/>
</g>
</svg>
